M48
;DRILL file {KiCad 4.0.4-stable} date 12/30/16 15:58:59
;FORMAT={-:-/ absolute / inch / decimal}
FMAT,2
INCH,TZ
T1C0.012
T2C0.016
T3C0.020
T4C0.022
T5C0.031
T6C0.035
T7C0.040
T8C0.089
%
G90
G05
M72
T1
X5.0276Y-2.9843
X5.0276Y-3.1811
X5.0276Y-3.378
X5.0276Y-3.5748
X5.0276Y-3.7717
X5.0591Y-4.7835
X5.2244Y-3.9685
X5.3071Y-2.7874
X5.4213Y-3.9685
X5.4213Y-4.5866
X5.4843Y-4.3976
X5.5079Y-4.5118
X5.5315Y-4.7835
X5.6142Y-4.3976
X5.6535Y-4.7835
X5.7008Y-2.7874
X5.8559Y-4.2445
X5.8559Y-4.2839
X5.8559Y-4.3232
X5.8953Y-4.2445
X5.8953Y-4.2839
X5.8953Y-4.3232
X5.8976Y-2.7874
X5.8976Y-2.9843
X5.8976Y-3.1811
X5.8976Y-3.378
X5.8976Y-3.5748
X5.9134Y-4.5035
X5.9138Y-4.5035
X5.9346Y-4.2445
X5.9346Y-4.2839
X5.9346Y-4.3232
X6.0394Y-3.815
X6.0394Y-3.9764
X6.0807Y-4.6358
X6.0945Y-2.7874
X6.185Y-4.7835
X6.2165Y-3.9724
X6.2441Y-4.3543
X6.2441Y-4.4646
X6.2441Y-4.5787
X6.2913Y-2.7874
X6.3031Y-4.7835
X6.4291Y-4.5787
X6.4291Y-4.7835
X6.4331Y-4.1654
X6.4882Y-2.7874
X6.5906Y-4.5433
X6.685Y-2.9843
X6.685Y-3.1811
X6.685Y-3.378
X6.685Y-3.5748
X6.685Y-3.7717
X6.685Y-4.1654
X6.7283Y-4.5433
T2
X5.1575Y-4.7638
X5.5591Y-4.7362
X5.5744Y-3.7835
X5.6535Y-4.7008
X5.6846Y-3.413
X5.7075Y-4.2535
X5.7244Y-4.1693
X5.7283Y-4.3661
X5.7638Y-3.6969
X5.8402Y-4.4886
X5.8783Y-4.5594
X5.9224Y-4.4342
X6.1378Y-4.3819
T5
X5.4331Y-3.0378
X5.4331Y-3.1165
X5.4331Y-3.1953
X5.4331Y-3.274
X5.4331Y-3.3528
X5.4331Y-3.4315
X5.4331Y-3.5102
X5.4331Y-3.589
X5.4331Y-3.6677
X5.4331Y-3.7465
X6.2992Y-3.0378
X6.2992Y-3.1165
X6.2992Y-3.1953
X6.2992Y-3.274
X6.2992Y-3.3528
X6.2992Y-3.4315
X6.2992Y-3.5102
X6.2992Y-3.589
X6.2992Y-3.6677
X6.2992Y-3.7465
T6
X5.0965Y-4.1142
X5.0965Y-4.2126
T7
X5.2362Y-2.9528
X5.2362Y-3.0528
X5.2362Y-3.1528
X5.2362Y-3.2528
X5.2362Y-3.3528
X5.2362Y-3.4528
X5.2362Y-3.5528
X5.2362Y-3.6528
X5.2362Y-3.7528
X5.2362Y-3.8528
X5.2669Y-4.1976
X5.2669Y-4.2976
X6.4961Y-2.9528
X6.4961Y-3.0528
X6.4961Y-3.1528
X6.4961Y-3.2528
X6.4961Y-3.3528
X6.4961Y-3.4528
X6.4961Y-3.5528
X6.4961Y-3.6528
X6.4961Y-3.7528
X6.4961Y-3.8528
X6.5236Y-4.6457
X6.5236Y-4.7457
X6.6654Y-4.6457
X6.6654Y-4.7457
T8
X5.0472Y-2.8189
X5.0472Y-3.937
X6.6811Y-2.8189
X6.6811Y-3.937
T3
X5.7283Y-4.7813G85X5.7283Y-4.7557
G05
X6.0039Y-4.7813G85X6.0039Y-4.7557
G05
T4
X5.7618Y-4.6622G85X5.7736Y-4.6622
G05
X5.9586Y-4.6622G85X5.9704Y-4.6622
G05
T0
M30
