G04 #@! TF.FileFunction,Other,Fab,Top*
%FSLAX46Y46*%
G04 Gerber Fmt 4.6, Leading zero omitted, Abs format (unit mm)*
G04 Created by KiCad (PCBNEW 4.0.4-stable) date 12/28/16 20:43:16*
%MOMM*%
%LPD*%
G01*
G04 APERTURE LIST*
%ADD10C,0.100000*%
%ADD11C,0.150000*%
G04 APERTURE END LIST*
D10*
D11*
X137800000Y-112450000D02*
X136000000Y-112450000D01*
X136000000Y-112450000D02*
X136000000Y-115550000D01*
X137800000Y-115550000D02*
X136000000Y-115550000D01*
X137800000Y-112450000D02*
X137800000Y-115550000D01*
X137400000Y-119775000D02*
X137400000Y-121025000D01*
X135400000Y-119775000D02*
X137400000Y-119775000D01*
X135400000Y-121025000D02*
X135400000Y-119775000D01*
X137400000Y-121025000D02*
X135400000Y-121025000D01*
X131885000Y-118050000D02*
X133135000Y-118050000D01*
X131885000Y-120050000D02*
X131885000Y-118050000D01*
X133135000Y-120050000D02*
X131885000Y-120050000D01*
X133135000Y-118050000D02*
X133135000Y-120050000D01*
X156525000Y-109100000D02*
X155275000Y-109100000D01*
X156525000Y-107100000D02*
X156525000Y-109100000D01*
X155275000Y-107100000D02*
X156525000Y-107100000D01*
X155275000Y-109100000D02*
X155275000Y-107100000D01*
X133155000Y-114830000D02*
X131905000Y-114830000D01*
X133155000Y-112830000D02*
X133155000Y-114830000D01*
X131905000Y-112830000D02*
X133155000Y-112830000D01*
X131905000Y-114830000D02*
X131905000Y-112830000D01*
X143070000Y-110270000D02*
X143070000Y-109670000D01*
X142970000Y-109970000D02*
X142670000Y-110270000D01*
X142670000Y-109670000D02*
X142970000Y-109970000D01*
X142670000Y-110270000D02*
X142670000Y-109670000D01*
X141670000Y-110570000D02*
X143670000Y-110570000D01*
X141670000Y-109370000D02*
X141670000Y-110570000D01*
X143670000Y-109370000D02*
X141670000Y-109370000D01*
X143670000Y-110570000D02*
X143670000Y-109370000D01*
X143050000Y-108060000D02*
X143050000Y-107460000D01*
X142950000Y-107760000D02*
X142650000Y-108060000D01*
X142650000Y-107460000D02*
X142950000Y-107760000D01*
X142650000Y-108060000D02*
X142650000Y-107460000D01*
X141650000Y-108360000D02*
X143650000Y-108360000D01*
X141650000Y-107160000D02*
X141650000Y-108360000D01*
X143650000Y-107160000D02*
X141650000Y-107160000D01*
X143650000Y-108360000D02*
X143650000Y-107160000D01*
X140600000Y-118000000D02*
X140600000Y-118600000D01*
X140700000Y-118300000D02*
X141000000Y-118000000D01*
X141000000Y-118600000D02*
X140700000Y-118300000D01*
X141000000Y-118000000D02*
X141000000Y-118600000D01*
X142000000Y-117700000D02*
X140000000Y-117700000D01*
X142000000Y-118900000D02*
X142000000Y-117700000D01*
X140000000Y-118900000D02*
X142000000Y-118900000D01*
X140000000Y-117700000D02*
X140000000Y-118900000D01*
D10*
X137202329Y-110542869D02*
X137202329Y-109292869D01*
X139202329Y-110542869D02*
X137202329Y-110542869D01*
X139202329Y-109292869D02*
X139202329Y-110542869D01*
X137202329Y-109292869D02*
X139202329Y-109292869D01*
X137212329Y-108432869D02*
X137212329Y-107182869D01*
X139212329Y-108432869D02*
X137212329Y-108432869D01*
X139212329Y-107182869D02*
X139212329Y-108432869D01*
X137212329Y-107182869D02*
X139212329Y-107182869D01*
X137500000Y-117675000D02*
X137500000Y-118925000D01*
X135500000Y-117675000D02*
X137500000Y-117675000D01*
X135500000Y-118925000D02*
X135500000Y-117675000D01*
X137500000Y-118925000D02*
X135500000Y-118925000D01*
D11*
X154230000Y-113145000D02*
X154230000Y-114395000D01*
X152230000Y-113145000D02*
X154230000Y-113145000D01*
X152230000Y-114395000D02*
X152230000Y-113145000D01*
X154230000Y-114395000D02*
X152230000Y-114395000D01*
X143813432Y-114035654D02*
X143813432Y-112785654D01*
X145813432Y-114035654D02*
X143813432Y-114035654D01*
X145813432Y-112785654D02*
X145813432Y-114035654D01*
X143813432Y-112785654D02*
X145813432Y-112785654D01*
D10*
X152180000Y-116475000D02*
X152180000Y-115225000D01*
X154180000Y-116475000D02*
X152180000Y-116475000D01*
X154180000Y-115225000D02*
X154180000Y-116475000D01*
X152180000Y-115225000D02*
X154180000Y-115225000D01*
X145893432Y-114875654D02*
X145893432Y-116125654D01*
X143893432Y-114875654D02*
X145893432Y-114875654D01*
X143893432Y-116125654D02*
X143893432Y-114875654D01*
X145893432Y-116125654D02*
X143893432Y-116125654D01*
D11*
X147240000Y-110310000D02*
X147240000Y-106310000D01*
X147240000Y-106310000D02*
X152240000Y-106310000D01*
X152240000Y-106310000D02*
X152240000Y-111310000D01*
X152240000Y-111310000D02*
X148240000Y-111310000D01*
X148240000Y-111310000D02*
X147240000Y-110310000D01*
X124032381Y-121209524D02*
X124032381Y-121019047D01*
X124080000Y-120923809D01*
X124175238Y-120828571D01*
X124365714Y-120780952D01*
X124699048Y-120780952D01*
X124889524Y-120828571D01*
X124984762Y-120923809D01*
X125032381Y-121019047D01*
X125032381Y-121209524D01*
X124984762Y-121304762D01*
X124889524Y-121400000D01*
X124699048Y-121447619D01*
X124365714Y-121447619D01*
X124175238Y-121400000D01*
X124080000Y-121304762D01*
X124032381Y-121209524D01*
X125032381Y-120352381D02*
X124032381Y-120352381D01*
X125032381Y-119780952D01*
X124032381Y-119780952D01*
X123984762Y-118590476D02*
X125270476Y-119447619D01*
X124032381Y-118066667D02*
X124032381Y-117876190D01*
X124080000Y-117780952D01*
X124175238Y-117685714D01*
X124365714Y-117638095D01*
X124699048Y-117638095D01*
X124889524Y-117685714D01*
X124984762Y-117780952D01*
X125032381Y-117876190D01*
X125032381Y-118066667D01*
X124984762Y-118161905D01*
X124889524Y-118257143D01*
X124699048Y-118304762D01*
X124365714Y-118304762D01*
X124175238Y-118257143D01*
X124080000Y-118161905D01*
X124032381Y-118066667D01*
X124508571Y-116876190D02*
X124508571Y-117209524D01*
X125032381Y-117209524D02*
X124032381Y-117209524D01*
X124032381Y-116733333D01*
X124508571Y-116019047D02*
X124508571Y-116352381D01*
X125032381Y-116352381D02*
X124032381Y-116352381D01*
X124032381Y-115876190D01*
X125127619Y-115733333D02*
X125127619Y-114971428D01*
X124984762Y-114780952D02*
X125032381Y-114638095D01*
X125032381Y-114399999D01*
X124984762Y-114304761D01*
X124937143Y-114257142D01*
X124841905Y-114209523D01*
X124746667Y-114209523D01*
X124651429Y-114257142D01*
X124603810Y-114304761D01*
X124556190Y-114399999D01*
X124508571Y-114590476D01*
X124460952Y-114685714D01*
X124413333Y-114733333D01*
X124318095Y-114780952D01*
X124222857Y-114780952D01*
X124127619Y-114733333D01*
X124080000Y-114685714D01*
X124032381Y-114590476D01*
X124032381Y-114352380D01*
X124080000Y-114209523D01*
X124365714Y-113876190D02*
X125032381Y-113685714D01*
X124556190Y-113495237D01*
X125032381Y-113304761D01*
X124365714Y-113114285D01*
X125032381Y-112733333D02*
X124365714Y-112733333D01*
X124032381Y-112733333D02*
X124080000Y-112780952D01*
X124127619Y-112733333D01*
X124080000Y-112685714D01*
X124032381Y-112733333D01*
X124127619Y-112733333D01*
X124365714Y-112400000D02*
X124365714Y-112019048D01*
X124032381Y-112257143D02*
X124889524Y-112257143D01*
X124984762Y-112209524D01*
X125032381Y-112114286D01*
X125032381Y-112019048D01*
X124984762Y-111257142D02*
X125032381Y-111352380D01*
X125032381Y-111542857D01*
X124984762Y-111638095D01*
X124937143Y-111685714D01*
X124841905Y-111733333D01*
X124556190Y-111733333D01*
X124460952Y-111685714D01*
X124413333Y-111638095D01*
X124365714Y-111542857D01*
X124365714Y-111352380D01*
X124413333Y-111257142D01*
X125032381Y-110828571D02*
X124032381Y-110828571D01*
X125032381Y-110399999D02*
X124508571Y-110399999D01*
X124413333Y-110447618D01*
X124365714Y-110542856D01*
X124365714Y-110685714D01*
X124413333Y-110780952D01*
X124460952Y-110828571D01*
X130090476Y-117352381D02*
X129614285Y-117352381D01*
X129614285Y-116352381D01*
X130423809Y-117352381D02*
X130423809Y-116352381D01*
X130804762Y-116352381D01*
X130900000Y-116400000D01*
X130947619Y-116447619D01*
X130995238Y-116542857D01*
X130995238Y-116685714D01*
X130947619Y-116780952D01*
X130900000Y-116828571D01*
X130804762Y-116876190D01*
X130423809Y-116876190D01*
X131900000Y-116352381D02*
X131423809Y-116352381D01*
X131376190Y-116828571D01*
X131423809Y-116780952D01*
X131519047Y-116733333D01*
X131757143Y-116733333D01*
X131852381Y-116780952D01*
X131900000Y-116828571D01*
X131947619Y-116923810D01*
X131947619Y-117161905D01*
X131900000Y-117257143D01*
X131852381Y-117304762D01*
X131757143Y-117352381D01*
X131519047Y-117352381D01*
X131423809Y-117304762D01*
X131376190Y-117257143D01*
X132423809Y-117352381D02*
X132614285Y-117352381D01*
X132709524Y-117304762D01*
X132757143Y-117257143D01*
X132852381Y-117114286D01*
X132900000Y-116923810D01*
X132900000Y-116542857D01*
X132852381Y-116447619D01*
X132804762Y-116400000D01*
X132709524Y-116352381D01*
X132519047Y-116352381D01*
X132423809Y-116400000D01*
X132376190Y-116447619D01*
X132328571Y-116542857D01*
X132328571Y-116780952D01*
X132376190Y-116876190D01*
X132423809Y-116923810D01*
X132519047Y-116971429D01*
X132709524Y-116971429D01*
X132804762Y-116923810D01*
X132852381Y-116876190D01*
X132900000Y-116780952D01*
X133519047Y-116352381D02*
X133614286Y-116352381D01*
X133709524Y-116400000D01*
X133757143Y-116447619D01*
X133804762Y-116542857D01*
X133852381Y-116733333D01*
X133852381Y-116971429D01*
X133804762Y-117161905D01*
X133757143Y-117257143D01*
X133709524Y-117304762D01*
X133614286Y-117352381D01*
X133519047Y-117352381D01*
X133423809Y-117304762D01*
X133376190Y-117257143D01*
X133328571Y-117161905D01*
X133280952Y-116971429D01*
X133280952Y-116733333D01*
X133328571Y-116542857D01*
X133376190Y-116447619D01*
X133423809Y-116400000D01*
X133519047Y-116352381D01*
X134185714Y-116352381D02*
X134852381Y-116352381D01*
X134423809Y-117352381D01*
X134995238Y-117447619D02*
X135757143Y-117447619D01*
X136471429Y-117352381D02*
X135995238Y-117352381D01*
X135995238Y-116352381D01*
X136804762Y-117352381D02*
X136804762Y-116352381D01*
X137042857Y-116352381D01*
X137185715Y-116400000D01*
X137280953Y-116495238D01*
X137328572Y-116590476D01*
X137376191Y-116780952D01*
X137376191Y-116923810D01*
X137328572Y-117114286D01*
X137280953Y-117209524D01*
X137185715Y-117304762D01*
X137042857Y-117352381D01*
X136804762Y-117352381D01*
X137995238Y-116352381D02*
X138185715Y-116352381D01*
X138280953Y-116400000D01*
X138376191Y-116495238D01*
X138423810Y-116685714D01*
X138423810Y-117019048D01*
X138376191Y-117209524D01*
X138280953Y-117304762D01*
X138185715Y-117352381D01*
X137995238Y-117352381D01*
X137900000Y-117304762D01*
X137804762Y-117209524D01*
X137757143Y-117019048D01*
X137757143Y-116685714D01*
X137804762Y-116495238D01*
X137900000Y-116400000D01*
X137995238Y-116352381D01*
X138614286Y-117447619D02*
X139376191Y-117447619D01*
X139566667Y-116447619D02*
X139614286Y-116400000D01*
X139709524Y-116352381D01*
X139947620Y-116352381D01*
X140042858Y-116400000D01*
X140090477Y-116447619D01*
X140138096Y-116542857D01*
X140138096Y-116638095D01*
X140090477Y-116780952D01*
X139519048Y-117352381D01*
X140138096Y-117352381D01*
X141042858Y-116352381D02*
X140566667Y-116352381D01*
X140519048Y-116828571D01*
X140566667Y-116780952D01*
X140661905Y-116733333D01*
X140900001Y-116733333D01*
X140995239Y-116780952D01*
X141042858Y-116828571D01*
X141090477Y-116923810D01*
X141090477Y-117161905D01*
X141042858Y-117257143D01*
X140995239Y-117304762D01*
X140900001Y-117352381D01*
X140661905Y-117352381D01*
X140566667Y-117304762D01*
X140519048Y-117257143D01*
X141709524Y-116352381D02*
X141804763Y-116352381D01*
X141900001Y-116400000D01*
X141947620Y-116447619D01*
X141995239Y-116542857D01*
X142042858Y-116733333D01*
X142042858Y-116971429D01*
X141995239Y-117161905D01*
X141947620Y-117257143D01*
X141900001Y-117304762D01*
X141804763Y-117352381D01*
X141709524Y-117352381D01*
X141614286Y-117304762D01*
X141566667Y-117257143D01*
X141519048Y-117161905D01*
X141471429Y-116971429D01*
X141471429Y-116733333D01*
X141519048Y-116542857D01*
X141566667Y-116447619D01*
X141614286Y-116400000D01*
X141709524Y-116352381D01*
X142471429Y-117352381D02*
X142471429Y-116685714D01*
X142471429Y-116780952D02*
X142519048Y-116733333D01*
X142614286Y-116685714D01*
X142757144Y-116685714D01*
X142852382Y-116733333D01*
X142900001Y-116828571D01*
X142900001Y-117352381D01*
X142900001Y-116828571D02*
X142947620Y-116733333D01*
X143042858Y-116685714D01*
X143185715Y-116685714D01*
X143280953Y-116733333D01*
X143328572Y-116828571D01*
X143328572Y-117352381D01*
X143757143Y-117066667D02*
X144233334Y-117066667D01*
X143661905Y-117352381D02*
X143995238Y-116352381D01*
X144328572Y-117352381D01*
X135804762Y-118752381D02*
X135233333Y-118752381D01*
X135519047Y-118752381D02*
X135519047Y-117752381D01*
X135423809Y-117895238D01*
X135328571Y-117990476D01*
X135233333Y-118038095D01*
X136661905Y-118085714D02*
X136661905Y-118752381D01*
X136233333Y-118085714D02*
X136233333Y-118609524D01*
X136280952Y-118704762D01*
X136376190Y-118752381D01*
X136519048Y-118752381D01*
X136614286Y-118704762D01*
X136661905Y-118657143D01*
X137471429Y-118228571D02*
X137138095Y-118228571D01*
X137138095Y-118752381D02*
X137138095Y-117752381D01*
X137614286Y-117752381D01*
X147261905Y-76612381D02*
X147928572Y-77612381D01*
X147928572Y-76612381D02*
X147261905Y-77612381D01*
X148642858Y-77088571D02*
X148785715Y-77136190D01*
X148833334Y-77183810D01*
X148880953Y-77279048D01*
X148880953Y-77421905D01*
X148833334Y-77517143D01*
X148785715Y-77564762D01*
X148690477Y-77612381D01*
X148309524Y-77612381D01*
X148309524Y-76612381D01*
X148642858Y-76612381D01*
X148738096Y-76660000D01*
X148785715Y-76707619D01*
X148833334Y-76802857D01*
X148833334Y-76898095D01*
X148785715Y-76993333D01*
X148738096Y-77040952D01*
X148642858Y-77088571D01*
X148309524Y-77088571D01*
X149309524Y-77088571D02*
X149642858Y-77088571D01*
X149785715Y-77612381D02*
X149309524Y-77612381D01*
X149309524Y-76612381D01*
X149785715Y-76612381D01*
X150214286Y-77088571D02*
X150547620Y-77088571D01*
X150690477Y-77612381D02*
X150214286Y-77612381D01*
X150214286Y-76612381D01*
X150690477Y-76612381D01*
X130862381Y-119645238D02*
X130862381Y-120216667D01*
X130862381Y-119930953D02*
X129862381Y-119930953D01*
X130005238Y-120026191D01*
X130100476Y-120121429D01*
X130148095Y-120216667D01*
X130195714Y-118788095D02*
X130862381Y-118788095D01*
X130195714Y-119216667D02*
X130719524Y-119216667D01*
X130814762Y-119169048D01*
X130862381Y-119073810D01*
X130862381Y-118930952D01*
X130814762Y-118835714D01*
X130767143Y-118788095D01*
X130338571Y-117978571D02*
X130338571Y-118311905D01*
X130862381Y-118311905D02*
X129862381Y-118311905D01*
X129862381Y-117835714D01*
X144666666Y-125234921D02*
X144666666Y-124234921D01*
X145000000Y-124949207D01*
X145333333Y-124234921D01*
X145333333Y-125234921D01*
X145809523Y-125234921D02*
X145809523Y-124568254D01*
X145809523Y-124234921D02*
X145761904Y-124282540D01*
X145809523Y-124330159D01*
X145857142Y-124282540D01*
X145809523Y-124234921D01*
X145809523Y-124330159D01*
X146714285Y-125187302D02*
X146619047Y-125234921D01*
X146428570Y-125234921D01*
X146333332Y-125187302D01*
X146285713Y-125139683D01*
X146238094Y-125044445D01*
X146238094Y-124758730D01*
X146285713Y-124663492D01*
X146333332Y-124615873D01*
X146428570Y-124568254D01*
X146619047Y-124568254D01*
X146714285Y-124615873D01*
X147142856Y-125234921D02*
X147142856Y-124568254D01*
X147142856Y-124758730D02*
X147190475Y-124663492D01*
X147238094Y-124615873D01*
X147333332Y-124568254D01*
X147428571Y-124568254D01*
X147904761Y-125234921D02*
X147809523Y-125187302D01*
X147761904Y-125139683D01*
X147714285Y-125044445D01*
X147714285Y-124758730D01*
X147761904Y-124663492D01*
X147809523Y-124615873D01*
X147904761Y-124568254D01*
X148047619Y-124568254D01*
X148142857Y-124615873D01*
X148190476Y-124663492D01*
X148238095Y-124758730D01*
X148238095Y-125044445D01*
X148190476Y-125139683D01*
X148142857Y-125187302D01*
X148047619Y-125234921D01*
X147904761Y-125234921D01*
X148428571Y-125330159D02*
X149190476Y-125330159D01*
X149857143Y-124568254D02*
X149857143Y-125234921D01*
X149428571Y-124568254D02*
X149428571Y-125092064D01*
X149476190Y-125187302D01*
X149571428Y-125234921D01*
X149714286Y-125234921D01*
X149809524Y-125187302D01*
X149857143Y-125139683D01*
X150285714Y-125187302D02*
X150380952Y-125234921D01*
X150571428Y-125234921D01*
X150666667Y-125187302D01*
X150714286Y-125092064D01*
X150714286Y-125044445D01*
X150666667Y-124949207D01*
X150571428Y-124901588D01*
X150428571Y-124901588D01*
X150333333Y-124853969D01*
X150285714Y-124758730D01*
X150285714Y-124711111D01*
X150333333Y-124615873D01*
X150428571Y-124568254D01*
X150571428Y-124568254D01*
X150666667Y-124615873D01*
X151142857Y-125234921D02*
X151142857Y-124234921D01*
X151142857Y-124615873D02*
X151238095Y-124568254D01*
X151428572Y-124568254D01*
X151523810Y-124615873D01*
X151571429Y-124663492D01*
X151619048Y-124758730D01*
X151619048Y-125044445D01*
X151571429Y-125139683D01*
X151523810Y-125187302D01*
X151428572Y-125234921D01*
X151238095Y-125234921D01*
X151142857Y-125187302D01*
X151809524Y-125330159D02*
X152571429Y-125330159D01*
X153142858Y-124711111D02*
X153285715Y-124758730D01*
X153333334Y-124806350D01*
X153380953Y-124901588D01*
X153380953Y-125044445D01*
X153333334Y-125139683D01*
X153285715Y-125187302D01*
X153190477Y-125234921D01*
X152809524Y-125234921D01*
X152809524Y-124234921D01*
X153142858Y-124234921D01*
X153238096Y-124282540D01*
X153285715Y-124330159D01*
X153333334Y-124425397D01*
X153333334Y-124520635D01*
X153285715Y-124615873D01*
X153238096Y-124663492D01*
X153142858Y-124711111D01*
X152809524Y-124711111D01*
X157452381Y-109742857D02*
X157452381Y-109647618D01*
X157500000Y-109552380D01*
X157547619Y-109504761D01*
X157642857Y-109457142D01*
X157833333Y-109409523D01*
X158071429Y-109409523D01*
X158261905Y-109457142D01*
X158357143Y-109504761D01*
X158404762Y-109552380D01*
X158452381Y-109647618D01*
X158452381Y-109742857D01*
X158404762Y-109838095D01*
X158357143Y-109885714D01*
X158261905Y-109933333D01*
X158071429Y-109980952D01*
X157833333Y-109980952D01*
X157642857Y-109933333D01*
X157547619Y-109885714D01*
X157500000Y-109838095D01*
X157452381Y-109742857D01*
X158357143Y-108980952D02*
X158404762Y-108933333D01*
X158452381Y-108980952D01*
X158404762Y-109028571D01*
X158357143Y-108980952D01*
X158452381Y-108980952D01*
X158452381Y-107980952D02*
X158452381Y-108552381D01*
X158452381Y-108266667D02*
X157452381Y-108266667D01*
X157595238Y-108361905D01*
X157690476Y-108457143D01*
X157738095Y-108552381D01*
X157785714Y-107123809D02*
X158452381Y-107123809D01*
X157785714Y-107552381D02*
X158309524Y-107552381D01*
X158404762Y-107504762D01*
X158452381Y-107409524D01*
X158452381Y-107266666D01*
X158404762Y-107171428D01*
X158357143Y-107123809D01*
X157928571Y-106314285D02*
X157928571Y-106647619D01*
X158452381Y-106647619D02*
X157452381Y-106647619D01*
X157452381Y-106171428D01*
X135082381Y-114425238D02*
X135082381Y-114996667D01*
X135082381Y-114710953D02*
X134082381Y-114710953D01*
X134225238Y-114806191D01*
X134320476Y-114901429D01*
X134368095Y-114996667D01*
X134415714Y-113568095D02*
X135082381Y-113568095D01*
X134415714Y-113996667D02*
X134939524Y-113996667D01*
X135034762Y-113949048D01*
X135082381Y-113853810D01*
X135082381Y-113710952D01*
X135034762Y-113615714D01*
X134987143Y-113568095D01*
X134558571Y-112758571D02*
X134558571Y-113091905D01*
X135082381Y-113091905D02*
X134082381Y-113091905D01*
X134082381Y-112615714D01*
X140312857Y-108196190D02*
X140312857Y-108672381D01*
X139979524Y-107672381D02*
X140312857Y-108196190D01*
X140646191Y-107672381D01*
X140979524Y-108148571D02*
X141312858Y-108148571D01*
X141455715Y-108672381D02*
X140979524Y-108672381D01*
X140979524Y-107672381D01*
X141455715Y-107672381D01*
X142360477Y-108672381D02*
X141884286Y-108672381D01*
X141884286Y-107672381D01*
X143170001Y-108672381D02*
X142693810Y-108672381D01*
X142693810Y-107672381D01*
X143693810Y-107672381D02*
X143884287Y-107672381D01*
X143979525Y-107720000D01*
X144074763Y-107815238D01*
X144122382Y-108005714D01*
X144122382Y-108339048D01*
X144074763Y-108529524D01*
X143979525Y-108624762D01*
X143884287Y-108672381D01*
X143693810Y-108672381D01*
X143598572Y-108624762D01*
X143503334Y-108529524D01*
X143455715Y-108339048D01*
X143455715Y-108005714D01*
X143503334Y-107815238D01*
X143598572Y-107720000D01*
X143693810Y-107672381D01*
X144455715Y-107672381D02*
X144693810Y-108672381D01*
X144884287Y-107958095D01*
X145074763Y-108672381D01*
X145312858Y-107672381D01*
X140292857Y-105986190D02*
X140292857Y-106462381D01*
X139959524Y-105462381D02*
X140292857Y-105986190D01*
X140626191Y-105462381D01*
X140959524Y-105938571D02*
X141292858Y-105938571D01*
X141435715Y-106462381D02*
X140959524Y-106462381D01*
X140959524Y-105462381D01*
X141435715Y-105462381D01*
X142340477Y-106462381D02*
X141864286Y-106462381D01*
X141864286Y-105462381D01*
X143150001Y-106462381D02*
X142673810Y-106462381D01*
X142673810Y-105462381D01*
X143673810Y-105462381D02*
X143864287Y-105462381D01*
X143959525Y-105510000D01*
X144054763Y-105605238D01*
X144102382Y-105795714D01*
X144102382Y-106129048D01*
X144054763Y-106319524D01*
X143959525Y-106414762D01*
X143864287Y-106462381D01*
X143673810Y-106462381D01*
X143578572Y-106414762D01*
X143483334Y-106319524D01*
X143435715Y-106129048D01*
X143435715Y-105795714D01*
X143483334Y-105605238D01*
X143578572Y-105510000D01*
X143673810Y-105462381D01*
X144435715Y-105462381D02*
X144673810Y-106462381D01*
X144864287Y-105748095D01*
X145054763Y-106462381D01*
X145292858Y-105462381D01*
X138690476Y-120502381D02*
X138690476Y-119502381D01*
X139071429Y-119502381D01*
X139166667Y-119550000D01*
X139214286Y-119597619D01*
X139261905Y-119692857D01*
X139261905Y-119835714D01*
X139214286Y-119930952D01*
X139166667Y-119978571D01*
X139071429Y-120026190D01*
X138690476Y-120026190D01*
X139880952Y-119502381D02*
X140071429Y-119502381D01*
X140166667Y-119550000D01*
X140261905Y-119645238D01*
X140309524Y-119835714D01*
X140309524Y-120169048D01*
X140261905Y-120359524D01*
X140166667Y-120454762D01*
X140071429Y-120502381D01*
X139880952Y-120502381D01*
X139785714Y-120454762D01*
X139690476Y-120359524D01*
X139642857Y-120169048D01*
X139642857Y-119835714D01*
X139690476Y-119645238D01*
X139785714Y-119550000D01*
X139880952Y-119502381D01*
X140642857Y-119502381D02*
X140880952Y-120502381D01*
X141071429Y-119788095D01*
X141261905Y-120502381D01*
X141500000Y-119502381D01*
X141880952Y-119978571D02*
X142214286Y-119978571D01*
X142357143Y-120502381D02*
X141880952Y-120502381D01*
X141880952Y-119502381D01*
X142357143Y-119502381D01*
X143357143Y-120502381D02*
X143023809Y-120026190D01*
X142785714Y-120502381D02*
X142785714Y-119502381D01*
X143166667Y-119502381D01*
X143261905Y-119550000D01*
X143309524Y-119597619D01*
X143357143Y-119692857D01*
X143357143Y-119835714D01*
X143309524Y-119930952D01*
X143261905Y-119978571D01*
X143166667Y-120026190D01*
X142785714Y-120026190D01*
X124378571Y-108071428D02*
X124426190Y-107928571D01*
X124473810Y-107880952D01*
X124569048Y-107833333D01*
X124711905Y-107833333D01*
X124807143Y-107880952D01*
X124854762Y-107928571D01*
X124902381Y-108023809D01*
X124902381Y-108404762D01*
X123902381Y-108404762D01*
X123902381Y-108071428D01*
X123950000Y-107976190D01*
X123997619Y-107928571D01*
X124092857Y-107880952D01*
X124188095Y-107880952D01*
X124283333Y-107928571D01*
X124330952Y-107976190D01*
X124378571Y-108071428D01*
X124378571Y-108404762D01*
X124616667Y-107452381D02*
X124616667Y-106976190D01*
X124902381Y-107547619D02*
X123902381Y-107214286D01*
X124902381Y-106880952D01*
X123902381Y-106690476D02*
X123902381Y-106119047D01*
X124902381Y-106404762D02*
X123902381Y-106404762D01*
X123902381Y-105928571D02*
X123902381Y-105357142D01*
X124902381Y-105642857D02*
X123902381Y-105642857D01*
X124997619Y-105261904D02*
X124997619Y-104499999D01*
X124807143Y-103690475D02*
X124854762Y-103738094D01*
X124902381Y-103880951D01*
X124902381Y-103976189D01*
X124854762Y-104119047D01*
X124759524Y-104214285D01*
X124664286Y-104261904D01*
X124473810Y-104309523D01*
X124330952Y-104309523D01*
X124140476Y-104261904D01*
X124045238Y-104214285D01*
X123950000Y-104119047D01*
X123902381Y-103976189D01*
X123902381Y-103880951D01*
X123950000Y-103738094D01*
X123997619Y-103690475D01*
X123902381Y-103071428D02*
X123902381Y-102880951D01*
X123950000Y-102785713D01*
X124045238Y-102690475D01*
X124235714Y-102642856D01*
X124569048Y-102642856D01*
X124759524Y-102690475D01*
X124854762Y-102785713D01*
X124902381Y-102880951D01*
X124902381Y-103071428D01*
X124854762Y-103166666D01*
X124759524Y-103261904D01*
X124569048Y-103309523D01*
X124235714Y-103309523D01*
X124045238Y-103261904D01*
X123950000Y-103166666D01*
X123902381Y-103071428D01*
X124902381Y-102214285D02*
X123902381Y-102214285D01*
X124902381Y-101642856D01*
X123902381Y-101642856D01*
X124902381Y-101166666D02*
X123902381Y-101166666D01*
X124902381Y-100595237D01*
X123902381Y-100595237D01*
X126761904Y-71352381D02*
X127428571Y-72352381D01*
X127428571Y-71352381D02*
X126761904Y-72352381D01*
X128142857Y-71828571D02*
X128285714Y-71876190D01*
X128333333Y-71923810D01*
X128380952Y-72019048D01*
X128380952Y-72161905D01*
X128333333Y-72257143D01*
X128285714Y-72304762D01*
X128190476Y-72352381D01*
X127809523Y-72352381D01*
X127809523Y-71352381D01*
X128142857Y-71352381D01*
X128238095Y-71400000D01*
X128285714Y-71447619D01*
X128333333Y-71542857D01*
X128333333Y-71638095D01*
X128285714Y-71733333D01*
X128238095Y-71780952D01*
X128142857Y-71828571D01*
X127809523Y-71828571D01*
X128809523Y-71828571D02*
X129142857Y-71828571D01*
X129285714Y-72352381D02*
X128809523Y-72352381D01*
X128809523Y-71352381D01*
X129285714Y-71352381D01*
X129714285Y-71828571D02*
X130047619Y-71828571D01*
X130190476Y-72352381D02*
X129714285Y-72352381D01*
X129714285Y-71352381D01*
X130190476Y-71352381D01*
X130380952Y-72447619D02*
X131142857Y-72447619D01*
X131952381Y-72257143D02*
X131904762Y-72304762D01*
X131761905Y-72352381D01*
X131666667Y-72352381D01*
X131523809Y-72304762D01*
X131428571Y-72209524D01*
X131380952Y-72114286D01*
X131333333Y-71923810D01*
X131333333Y-71780952D01*
X131380952Y-71590476D01*
X131428571Y-71495238D01*
X131523809Y-71400000D01*
X131666667Y-71352381D01*
X131761905Y-71352381D01*
X131904762Y-71400000D01*
X131952381Y-71447619D01*
X132571428Y-71352381D02*
X132761905Y-71352381D01*
X132857143Y-71400000D01*
X132952381Y-71495238D01*
X133000000Y-71685714D01*
X133000000Y-72019048D01*
X132952381Y-72209524D01*
X132857143Y-72304762D01*
X132761905Y-72352381D01*
X132571428Y-72352381D01*
X132476190Y-72304762D01*
X132380952Y-72209524D01*
X132333333Y-72019048D01*
X132333333Y-71685714D01*
X132380952Y-71495238D01*
X132476190Y-71400000D01*
X132571428Y-71352381D01*
X133428571Y-72352381D02*
X133428571Y-71352381D01*
X134000000Y-72352381D01*
X134000000Y-71352381D01*
X134476190Y-72352381D02*
X134476190Y-71352381D01*
X135047619Y-72352381D01*
X135047619Y-71352381D01*
X135285714Y-72447619D02*
X136047619Y-72447619D01*
X136761905Y-72352381D02*
X136285714Y-72352381D01*
X136285714Y-71352381D01*
X137095238Y-71828571D02*
X137428572Y-71828571D01*
X137571429Y-72352381D02*
X137095238Y-72352381D01*
X137095238Y-71352381D01*
X137571429Y-71352381D01*
X138333334Y-71828571D02*
X138000000Y-71828571D01*
X138000000Y-72352381D02*
X138000000Y-71352381D01*
X138476191Y-71352381D01*
X138714286Y-71352381D02*
X139285715Y-71352381D01*
X139000000Y-72352381D02*
X139000000Y-71352381D01*
X165276191Y-115257143D02*
X165228572Y-115304762D01*
X165085715Y-115352381D01*
X164990477Y-115352381D01*
X164847619Y-115304762D01*
X164752381Y-115209524D01*
X164704762Y-115114286D01*
X164657143Y-114923810D01*
X164657143Y-114780952D01*
X164704762Y-114590476D01*
X164752381Y-114495238D01*
X164847619Y-114400000D01*
X164990477Y-114352381D01*
X165085715Y-114352381D01*
X165228572Y-114400000D01*
X165276191Y-114447619D01*
X165895238Y-114352381D02*
X166085715Y-114352381D01*
X166180953Y-114400000D01*
X166276191Y-114495238D01*
X166323810Y-114685714D01*
X166323810Y-115019048D01*
X166276191Y-115209524D01*
X166180953Y-115304762D01*
X166085715Y-115352381D01*
X165895238Y-115352381D01*
X165800000Y-115304762D01*
X165704762Y-115209524D01*
X165657143Y-115019048D01*
X165657143Y-114685714D01*
X165704762Y-114495238D01*
X165800000Y-114400000D01*
X165895238Y-114352381D01*
X166752381Y-115352381D02*
X166752381Y-114352381D01*
X167323810Y-115352381D01*
X167323810Y-114352381D01*
X167800000Y-115352381D02*
X167800000Y-114352381D01*
X168371429Y-115352381D01*
X168371429Y-114352381D01*
X168609524Y-115447619D02*
X169371429Y-115447619D01*
X169800000Y-114352381D02*
X169895239Y-114352381D01*
X169990477Y-114400000D01*
X170038096Y-114447619D01*
X170085715Y-114542857D01*
X170133334Y-114733333D01*
X170133334Y-114971429D01*
X170085715Y-115161905D01*
X170038096Y-115257143D01*
X169990477Y-115304762D01*
X169895239Y-115352381D01*
X169800000Y-115352381D01*
X169704762Y-115304762D01*
X169657143Y-115257143D01*
X169609524Y-115161905D01*
X169561905Y-114971429D01*
X169561905Y-114733333D01*
X169609524Y-114542857D01*
X169657143Y-114447619D01*
X169704762Y-114400000D01*
X169800000Y-114352381D01*
X171085715Y-115352381D02*
X170514286Y-115352381D01*
X170800000Y-115352381D02*
X170800000Y-114352381D01*
X170704762Y-114495238D01*
X170609524Y-114590476D01*
X170514286Y-114638095D01*
X171419048Y-114352381D02*
X172085715Y-115352381D01*
X172085715Y-114352381D02*
X171419048Y-115352381D01*
X172657143Y-114352381D02*
X172752382Y-114352381D01*
X172847620Y-114400000D01*
X172895239Y-114447619D01*
X172942858Y-114542857D01*
X172990477Y-114733333D01*
X172990477Y-114971429D01*
X172942858Y-115161905D01*
X172895239Y-115257143D01*
X172847620Y-115304762D01*
X172752382Y-115352381D01*
X172657143Y-115352381D01*
X172561905Y-115304762D01*
X172514286Y-115257143D01*
X172466667Y-115161905D01*
X172419048Y-114971429D01*
X172419048Y-114733333D01*
X172466667Y-114542857D01*
X172514286Y-114447619D01*
X172561905Y-114400000D01*
X172657143Y-114352381D01*
X173371429Y-114447619D02*
X173419048Y-114400000D01*
X173514286Y-114352381D01*
X173752382Y-114352381D01*
X173847620Y-114400000D01*
X173895239Y-114447619D01*
X173942858Y-114542857D01*
X173942858Y-114638095D01*
X173895239Y-114780952D01*
X173323810Y-115352381D01*
X173942858Y-115352381D01*
X161676191Y-115257143D02*
X161628572Y-115304762D01*
X161485715Y-115352381D01*
X161390477Y-115352381D01*
X161247619Y-115304762D01*
X161152381Y-115209524D01*
X161104762Y-115114286D01*
X161057143Y-114923810D01*
X161057143Y-114780952D01*
X161104762Y-114590476D01*
X161152381Y-114495238D01*
X161247619Y-114400000D01*
X161390477Y-114352381D01*
X161485715Y-114352381D01*
X161628572Y-114400000D01*
X161676191Y-114447619D01*
X162295238Y-114352381D02*
X162485715Y-114352381D01*
X162580953Y-114400000D01*
X162676191Y-114495238D01*
X162723810Y-114685714D01*
X162723810Y-115019048D01*
X162676191Y-115209524D01*
X162580953Y-115304762D01*
X162485715Y-115352381D01*
X162295238Y-115352381D01*
X162200000Y-115304762D01*
X162104762Y-115209524D01*
X162057143Y-115019048D01*
X162057143Y-114685714D01*
X162104762Y-114495238D01*
X162200000Y-114400000D01*
X162295238Y-114352381D01*
X163152381Y-115352381D02*
X163152381Y-114352381D01*
X163723810Y-115352381D01*
X163723810Y-114352381D01*
X164200000Y-115352381D02*
X164200000Y-114352381D01*
X164771429Y-115352381D01*
X164771429Y-114352381D01*
X165009524Y-115447619D02*
X165771429Y-115447619D01*
X166200000Y-114352381D02*
X166295239Y-114352381D01*
X166390477Y-114400000D01*
X166438096Y-114447619D01*
X166485715Y-114542857D01*
X166533334Y-114733333D01*
X166533334Y-114971429D01*
X166485715Y-115161905D01*
X166438096Y-115257143D01*
X166390477Y-115304762D01*
X166295239Y-115352381D01*
X166200000Y-115352381D01*
X166104762Y-115304762D01*
X166057143Y-115257143D01*
X166009524Y-115161905D01*
X165961905Y-114971429D01*
X165961905Y-114733333D01*
X166009524Y-114542857D01*
X166057143Y-114447619D01*
X166104762Y-114400000D01*
X166200000Y-114352381D01*
X167485715Y-115352381D02*
X166914286Y-115352381D01*
X167200000Y-115352381D02*
X167200000Y-114352381D01*
X167104762Y-114495238D01*
X167009524Y-114590476D01*
X166914286Y-114638095D01*
X167819048Y-114352381D02*
X168485715Y-115352381D01*
X168485715Y-114352381D02*
X167819048Y-115352381D01*
X169057143Y-114352381D02*
X169152382Y-114352381D01*
X169247620Y-114400000D01*
X169295239Y-114447619D01*
X169342858Y-114542857D01*
X169390477Y-114733333D01*
X169390477Y-114971429D01*
X169342858Y-115161905D01*
X169295239Y-115257143D01*
X169247620Y-115304762D01*
X169152382Y-115352381D01*
X169057143Y-115352381D01*
X168961905Y-115304762D01*
X168914286Y-115257143D01*
X168866667Y-115161905D01*
X168819048Y-114971429D01*
X168819048Y-114733333D01*
X168866667Y-114542857D01*
X168914286Y-114447619D01*
X168961905Y-114400000D01*
X169057143Y-114352381D01*
X169771429Y-114447619D02*
X169819048Y-114400000D01*
X169914286Y-114352381D01*
X170152382Y-114352381D01*
X170247620Y-114400000D01*
X170295239Y-114447619D01*
X170342858Y-114542857D01*
X170342858Y-114638095D01*
X170295239Y-114780952D01*
X169723810Y-115352381D01*
X170342858Y-115352381D01*
X165438334Y-117187381D02*
X165438334Y-117901667D01*
X165390714Y-118044524D01*
X165295476Y-118139762D01*
X165152619Y-118187381D01*
X165057381Y-118187381D01*
X165771667Y-117187381D02*
X166343096Y-117187381D01*
X166057381Y-118187381D02*
X166057381Y-117187381D01*
X166628810Y-117901667D02*
X167105001Y-117901667D01*
X166533572Y-118187381D02*
X166866905Y-117187381D01*
X167200239Y-118187381D01*
X168057382Y-117235000D02*
X167962144Y-117187381D01*
X167819287Y-117187381D01*
X167676429Y-117235000D01*
X167581191Y-117330238D01*
X167533572Y-117425476D01*
X167485953Y-117615952D01*
X167485953Y-117758810D01*
X167533572Y-117949286D01*
X167581191Y-118044524D01*
X167676429Y-118139762D01*
X167819287Y-118187381D01*
X167914525Y-118187381D01*
X168057382Y-118139762D01*
X168105001Y-118092143D01*
X168105001Y-117758810D01*
X167914525Y-117758810D01*
X158285714Y-71352381D02*
X158952381Y-72352381D01*
X158952381Y-71352381D02*
X158285714Y-72352381D01*
X159666667Y-71828571D02*
X159809524Y-71876190D01*
X159857143Y-71923810D01*
X159904762Y-72019048D01*
X159904762Y-72161905D01*
X159857143Y-72257143D01*
X159809524Y-72304762D01*
X159714286Y-72352381D01*
X159333333Y-72352381D01*
X159333333Y-71352381D01*
X159666667Y-71352381D01*
X159761905Y-71400000D01*
X159809524Y-71447619D01*
X159857143Y-71542857D01*
X159857143Y-71638095D01*
X159809524Y-71733333D01*
X159761905Y-71780952D01*
X159666667Y-71828571D01*
X159333333Y-71828571D01*
X160333333Y-71828571D02*
X160666667Y-71828571D01*
X160809524Y-72352381D02*
X160333333Y-72352381D01*
X160333333Y-71352381D01*
X160809524Y-71352381D01*
X161238095Y-71828571D02*
X161571429Y-71828571D01*
X161714286Y-72352381D02*
X161238095Y-72352381D01*
X161238095Y-71352381D01*
X161714286Y-71352381D01*
X161904762Y-72447619D02*
X162666667Y-72447619D01*
X163476191Y-72257143D02*
X163428572Y-72304762D01*
X163285715Y-72352381D01*
X163190477Y-72352381D01*
X163047619Y-72304762D01*
X162952381Y-72209524D01*
X162904762Y-72114286D01*
X162857143Y-71923810D01*
X162857143Y-71780952D01*
X162904762Y-71590476D01*
X162952381Y-71495238D01*
X163047619Y-71400000D01*
X163190477Y-71352381D01*
X163285715Y-71352381D01*
X163428572Y-71400000D01*
X163476191Y-71447619D01*
X164095238Y-71352381D02*
X164285715Y-71352381D01*
X164380953Y-71400000D01*
X164476191Y-71495238D01*
X164523810Y-71685714D01*
X164523810Y-72019048D01*
X164476191Y-72209524D01*
X164380953Y-72304762D01*
X164285715Y-72352381D01*
X164095238Y-72352381D01*
X164000000Y-72304762D01*
X163904762Y-72209524D01*
X163857143Y-72019048D01*
X163857143Y-71685714D01*
X163904762Y-71495238D01*
X164000000Y-71400000D01*
X164095238Y-71352381D01*
X164952381Y-72352381D02*
X164952381Y-71352381D01*
X165523810Y-72352381D01*
X165523810Y-71352381D01*
X166000000Y-72352381D02*
X166000000Y-71352381D01*
X166571429Y-72352381D01*
X166571429Y-71352381D01*
X166809524Y-72447619D02*
X167571429Y-72447619D01*
X168380953Y-72352381D02*
X168047619Y-71876190D01*
X167809524Y-72352381D02*
X167809524Y-71352381D01*
X168190477Y-71352381D01*
X168285715Y-71400000D01*
X168333334Y-71447619D01*
X168380953Y-71542857D01*
X168380953Y-71685714D01*
X168333334Y-71780952D01*
X168285715Y-71828571D01*
X168190477Y-71876190D01*
X167809524Y-71876190D01*
X168809524Y-72352381D02*
X168809524Y-71352381D01*
X169809524Y-71400000D02*
X169714286Y-71352381D01*
X169571429Y-71352381D01*
X169428571Y-71400000D01*
X169333333Y-71495238D01*
X169285714Y-71590476D01*
X169238095Y-71780952D01*
X169238095Y-71923810D01*
X169285714Y-72114286D01*
X169333333Y-72209524D01*
X169428571Y-72304762D01*
X169571429Y-72352381D01*
X169666667Y-72352381D01*
X169809524Y-72304762D01*
X169857143Y-72257143D01*
X169857143Y-71923810D01*
X169666667Y-71923810D01*
X170285714Y-72352381D02*
X170285714Y-71352381D01*
X170285714Y-71828571D02*
X170857143Y-71828571D01*
X170857143Y-72352381D02*
X170857143Y-71352381D01*
X171190476Y-71352381D02*
X171761905Y-71352381D01*
X171476190Y-72352381D02*
X171476190Y-71352381D01*
X138266944Y-111516650D02*
X137695515Y-111516650D01*
X137981229Y-111516650D02*
X137981229Y-110516650D01*
X137885991Y-110659507D01*
X137790753Y-110754745D01*
X137695515Y-110802364D01*
X138695515Y-111516650D02*
X138695515Y-110516650D01*
X139266944Y-111516650D02*
X138838372Y-110945221D01*
X139266944Y-110516650D02*
X138695515Y-111088079D01*
X137998044Y-110360250D02*
X137426615Y-110360250D01*
X137712329Y-110360250D02*
X137712329Y-109360250D01*
X137617091Y-109503107D01*
X137521853Y-109598345D01*
X137426615Y-109645964D01*
X138426615Y-110360250D02*
X138426615Y-109360250D01*
X138998044Y-110360250D02*
X138569472Y-109788821D01*
X138998044Y-109360250D02*
X138426615Y-109931679D01*
X136285715Y-116652381D02*
X135714286Y-116652381D01*
X136000000Y-116652381D02*
X136000000Y-115652381D01*
X135904762Y-115795238D01*
X135809524Y-115890476D01*
X135714286Y-115938095D01*
X136714286Y-116652381D02*
X136714286Y-115652381D01*
X137285715Y-116652381D02*
X136857143Y-116080952D01*
X137285715Y-115652381D02*
X136714286Y-116223810D01*
X129958781Y-110669195D02*
X128958781Y-110669195D01*
X128958781Y-110288242D01*
X129006400Y-110193004D01*
X129054019Y-110145385D01*
X129149257Y-110097766D01*
X129292114Y-110097766D01*
X129387352Y-110145385D01*
X129434971Y-110193004D01*
X129482590Y-110288242D01*
X129482590Y-110669195D01*
X129958781Y-109097766D02*
X129482590Y-109431100D01*
X129958781Y-109669195D02*
X128958781Y-109669195D01*
X128958781Y-109288242D01*
X129006400Y-109193004D01*
X129054019Y-109145385D01*
X129149257Y-109097766D01*
X129292114Y-109097766D01*
X129387352Y-109145385D01*
X129434971Y-109193004D01*
X129482590Y-109288242D01*
X129482590Y-109669195D01*
X128958781Y-108478719D02*
X128958781Y-108288242D01*
X129006400Y-108193004D01*
X129101638Y-108097766D01*
X129292114Y-108050147D01*
X129625448Y-108050147D01*
X129815924Y-108097766D01*
X129911162Y-108193004D01*
X129958781Y-108288242D01*
X129958781Y-108478719D01*
X129911162Y-108573957D01*
X129815924Y-108669195D01*
X129625448Y-108716814D01*
X129292114Y-108716814D01*
X129101638Y-108669195D01*
X129006400Y-108573957D01*
X128958781Y-108478719D01*
X129434971Y-107288242D02*
X129482590Y-107145385D01*
X129530210Y-107097766D01*
X129625448Y-107050147D01*
X129768305Y-107050147D01*
X129863543Y-107097766D01*
X129911162Y-107145385D01*
X129958781Y-107240623D01*
X129958781Y-107621576D01*
X128958781Y-107621576D01*
X128958781Y-107288242D01*
X129006400Y-107193004D01*
X129054019Y-107145385D01*
X129149257Y-107097766D01*
X129244495Y-107097766D01*
X129339733Y-107145385D01*
X129387352Y-107193004D01*
X129434971Y-107288242D01*
X129434971Y-107621576D01*
X129434971Y-106621576D02*
X129434971Y-106288242D01*
X129958781Y-106145385D02*
X129958781Y-106621576D01*
X128958781Y-106621576D01*
X128958781Y-106145385D01*
X77593809Y-67538571D02*
X77260475Y-67538571D01*
X77260475Y-68062381D02*
X77260475Y-67062381D01*
X77736666Y-67062381D01*
X78546190Y-68062381D02*
X78546190Y-67538571D01*
X78498571Y-67443333D01*
X78403333Y-67395714D01*
X78212856Y-67395714D01*
X78117618Y-67443333D01*
X78546190Y-68014762D02*
X78450952Y-68062381D01*
X78212856Y-68062381D01*
X78117618Y-68014762D01*
X78069999Y-67919524D01*
X78069999Y-67824286D01*
X78117618Y-67729048D01*
X78212856Y-67681429D01*
X78450952Y-67681429D01*
X78546190Y-67633810D01*
X79022380Y-68062381D02*
X79022380Y-67062381D01*
X79022380Y-67443333D02*
X79117618Y-67395714D01*
X79308095Y-67395714D01*
X79403333Y-67443333D01*
X79450952Y-67490952D01*
X79498571Y-67586190D01*
X79498571Y-67871905D01*
X79450952Y-67967143D01*
X79403333Y-68014762D01*
X79308095Y-68062381D01*
X79117618Y-68062381D01*
X79022380Y-68014762D01*
X80689047Y-68062381D02*
X80689047Y-67062381D01*
X80927142Y-67062381D01*
X81070000Y-67110000D01*
X81165238Y-67205238D01*
X81212857Y-67300476D01*
X81260476Y-67490952D01*
X81260476Y-67633810D01*
X81212857Y-67824286D01*
X81165238Y-67919524D01*
X81070000Y-68014762D01*
X80927142Y-68062381D01*
X80689047Y-68062381D01*
X82070000Y-68014762D02*
X81974762Y-68062381D01*
X81784285Y-68062381D01*
X81689047Y-68014762D01*
X81641428Y-67919524D01*
X81641428Y-67538571D01*
X81689047Y-67443333D01*
X81784285Y-67395714D01*
X81974762Y-67395714D01*
X82070000Y-67443333D01*
X82117619Y-67538571D01*
X82117619Y-67633810D01*
X81641428Y-67729048D01*
X82403333Y-67395714D02*
X82784285Y-67395714D01*
X82546190Y-67062381D02*
X82546190Y-67919524D01*
X82593809Y-68014762D01*
X82689047Y-68062381D01*
X82784285Y-68062381D01*
X83546191Y-68062381D02*
X83546191Y-67538571D01*
X83498572Y-67443333D01*
X83403334Y-67395714D01*
X83212857Y-67395714D01*
X83117619Y-67443333D01*
X83546191Y-68014762D02*
X83450953Y-68062381D01*
X83212857Y-68062381D01*
X83117619Y-68014762D01*
X83070000Y-67919524D01*
X83070000Y-67824286D01*
X83117619Y-67729048D01*
X83212857Y-67681429D01*
X83450953Y-67681429D01*
X83546191Y-67633810D01*
X84022381Y-68062381D02*
X84022381Y-67395714D01*
X84022381Y-67062381D02*
X83974762Y-67110000D01*
X84022381Y-67157619D01*
X84070000Y-67110000D01*
X84022381Y-67062381D01*
X84022381Y-67157619D01*
X84641428Y-68062381D02*
X84546190Y-68014762D01*
X84498571Y-67919524D01*
X84498571Y-67062381D01*
X84974762Y-68014762D02*
X85070000Y-68062381D01*
X85260476Y-68062381D01*
X85355715Y-68014762D01*
X85403334Y-67919524D01*
X85403334Y-67871905D01*
X85355715Y-67776667D01*
X85260476Y-67729048D01*
X85117619Y-67729048D01*
X85022381Y-67681429D01*
X84974762Y-67586190D01*
X84974762Y-67538571D01*
X85022381Y-67443333D01*
X85117619Y-67395714D01*
X85260476Y-67395714D01*
X85355715Y-67443333D01*
X86450953Y-67395714D02*
X86831905Y-67395714D01*
X86593810Y-67062381D02*
X86593810Y-67919524D01*
X86641429Y-68014762D01*
X86736667Y-68062381D01*
X86831905Y-68062381D01*
X87593811Y-68062381D02*
X87593811Y-67538571D01*
X87546192Y-67443333D01*
X87450954Y-67395714D01*
X87260477Y-67395714D01*
X87165239Y-67443333D01*
X87593811Y-68014762D02*
X87498573Y-68062381D01*
X87260477Y-68062381D01*
X87165239Y-68014762D01*
X87117620Y-67919524D01*
X87117620Y-67824286D01*
X87165239Y-67729048D01*
X87260477Y-67681429D01*
X87498573Y-67681429D01*
X87593811Y-67633810D01*
X88070001Y-68062381D02*
X88070001Y-67062381D01*
X88070001Y-67443333D02*
X88165239Y-67395714D01*
X88355716Y-67395714D01*
X88450954Y-67443333D01*
X88498573Y-67490952D01*
X88546192Y-67586190D01*
X88546192Y-67871905D01*
X88498573Y-67967143D01*
X88450954Y-68014762D01*
X88355716Y-68062381D01*
X88165239Y-68062381D01*
X88070001Y-68014762D01*
X89117620Y-68062381D02*
X89022382Y-68014762D01*
X88974763Y-67919524D01*
X88974763Y-67062381D01*
X89879526Y-68014762D02*
X89784288Y-68062381D01*
X89593811Y-68062381D01*
X89498573Y-68014762D01*
X89450954Y-67919524D01*
X89450954Y-67538571D01*
X89498573Y-67443333D01*
X89593811Y-67395714D01*
X89784288Y-67395714D01*
X89879526Y-67443333D01*
X89927145Y-67538571D01*
X89927145Y-67633810D01*
X89450954Y-67729048D01*
X152063334Y-111455714D02*
X152063334Y-112122381D01*
X151825238Y-111074762D02*
X151587143Y-111789048D01*
X152206191Y-111789048D01*
X152491905Y-111122381D02*
X153158572Y-111122381D01*
X152730000Y-112122381D01*
X153539524Y-111455714D02*
X153539524Y-112455714D01*
X153539524Y-111503333D02*
X153634762Y-111455714D01*
X153825239Y-111455714D01*
X153920477Y-111503333D01*
X153968096Y-111550952D01*
X154015715Y-111646190D01*
X154015715Y-111931905D01*
X153968096Y-112027143D01*
X153920477Y-112074762D01*
X153825239Y-112122381D01*
X153634762Y-112122381D01*
X153539524Y-112074762D01*
X154777620Y-111598571D02*
X154444286Y-111598571D01*
X154444286Y-112122381D02*
X154444286Y-111122381D01*
X154920477Y-111122381D01*
X146733334Y-115385714D02*
X146733334Y-116052381D01*
X146495238Y-115004762D02*
X146257143Y-115719048D01*
X146876191Y-115719048D01*
X147161905Y-115052381D02*
X147828572Y-115052381D01*
X147400000Y-116052381D01*
X148209524Y-115385714D02*
X148209524Y-116385714D01*
X148209524Y-115433333D02*
X148304762Y-115385714D01*
X148495239Y-115385714D01*
X148590477Y-115433333D01*
X148638096Y-115480952D01*
X148685715Y-115576190D01*
X148685715Y-115861905D01*
X148638096Y-115957143D01*
X148590477Y-116004762D01*
X148495239Y-116052381D01*
X148304762Y-116052381D01*
X148209524Y-116004762D01*
X149447620Y-115528571D02*
X149114286Y-115528571D01*
X149114286Y-116052381D02*
X149114286Y-115052381D01*
X149590477Y-115052381D01*
X151965714Y-117497619D02*
X152013333Y-117450000D01*
X152108571Y-117402381D01*
X152346667Y-117402381D01*
X152441905Y-117450000D01*
X152489524Y-117497619D01*
X152537143Y-117592857D01*
X152537143Y-117688095D01*
X152489524Y-117830952D01*
X151918095Y-118402381D01*
X152537143Y-118402381D01*
X152870476Y-117402381D02*
X153537143Y-117402381D01*
X153108571Y-118402381D01*
X153918095Y-117878571D02*
X154251429Y-117878571D01*
X154394286Y-118402381D02*
X153918095Y-118402381D01*
X153918095Y-117402381D01*
X154394286Y-117402381D01*
X143585714Y-111447619D02*
X143633333Y-111400000D01*
X143728571Y-111352381D01*
X143966667Y-111352381D01*
X144061905Y-111400000D01*
X144109524Y-111447619D01*
X144157143Y-111542857D01*
X144157143Y-111638095D01*
X144109524Y-111780952D01*
X143538095Y-112352381D01*
X144157143Y-112352381D01*
X144490476Y-111352381D02*
X145157143Y-111352381D01*
X144728571Y-112352381D01*
X145538095Y-111828571D02*
X145871429Y-111828571D01*
X146014286Y-112352381D02*
X145538095Y-112352381D01*
X145538095Y-111352381D01*
X146014286Y-111352381D01*
X153972143Y-110905238D02*
X154019762Y-110952857D01*
X154067381Y-111095714D01*
X154067381Y-111190952D01*
X154019762Y-111333810D01*
X153924524Y-111429048D01*
X153829286Y-111476667D01*
X153638810Y-111524286D01*
X153495952Y-111524286D01*
X153305476Y-111476667D01*
X153210238Y-111429048D01*
X153115000Y-111333810D01*
X153067381Y-111190952D01*
X153067381Y-111095714D01*
X153115000Y-110952857D01*
X153162619Y-110905238D01*
X154067381Y-110476667D02*
X153067381Y-110476667D01*
X153067381Y-110095714D01*
X153115000Y-110000476D01*
X153162619Y-109952857D01*
X153257857Y-109905238D01*
X153400714Y-109905238D01*
X153495952Y-109952857D01*
X153543571Y-110000476D01*
X153591190Y-110095714D01*
X153591190Y-110476667D01*
X153162619Y-109524286D02*
X153115000Y-109476667D01*
X153067381Y-109381429D01*
X153067381Y-109143333D01*
X153115000Y-109048095D01*
X153162619Y-109000476D01*
X153257857Y-108952857D01*
X153353095Y-108952857D01*
X153495952Y-109000476D01*
X154067381Y-109571905D01*
X154067381Y-108952857D01*
X154067381Y-108000476D02*
X154067381Y-108571905D01*
X154067381Y-108286191D02*
X153067381Y-108286191D01*
X153210238Y-108381429D01*
X153305476Y-108476667D01*
X153353095Y-108571905D01*
X153067381Y-107381429D02*
X153067381Y-107286190D01*
X153115000Y-107190952D01*
X153162619Y-107143333D01*
X153257857Y-107095714D01*
X153448333Y-107048095D01*
X153686429Y-107048095D01*
X153876905Y-107095714D01*
X153972143Y-107143333D01*
X154019762Y-107190952D01*
X154067381Y-107286190D01*
X154067381Y-107381429D01*
X154019762Y-107476667D01*
X153972143Y-107524286D01*
X153876905Y-107571905D01*
X153686429Y-107619524D01*
X153448333Y-107619524D01*
X153257857Y-107571905D01*
X153162619Y-107524286D01*
X153115000Y-107476667D01*
X153067381Y-107381429D01*
X153162619Y-106667143D02*
X153115000Y-106619524D01*
X153067381Y-106524286D01*
X153067381Y-106286190D01*
X153115000Y-106190952D01*
X153162619Y-106143333D01*
X153257857Y-106095714D01*
X153353095Y-106095714D01*
X153495952Y-106143333D01*
X154067381Y-106714762D01*
X154067381Y-106095714D01*
M02*
