G04 #@! TF.FileFunction,Soldermask,Top*
%FSLAX46Y46*%
G04 Gerber Fmt 4.6, Leading zero omitted, Abs format (unit mm)*
G04 Created by KiCad (PCBNEW 4.0.4-stable) date 12/30/16 15:58:51*
%MOMM*%
%LPD*%
G01*
G04 APERTURE LIST*
%ADD10C,0.100000*%
%ADD11C,2.260600*%
%ADD12C,0.900000*%
%ADD13R,1.500000X0.700000*%
%ADD14R,0.800000X1.000000*%
%ADD15R,1.060000X0.650000*%
%ADD16R,1.500000X1.250000*%
%ADD17R,0.750000X2.500000*%
%ADD18C,1.400000*%
%ADD19R,1.250000X1.500000*%
%ADD20R,0.400000X1.350000*%
%ADD21O,1.250000X0.950000*%
%ADD22O,1.000000X1.550000*%
%ADD23R,1.450000X1.700000*%
%ADD24R,1.198880X1.198880*%
%ADD25R,1.850000X1.850000*%
%ADD26C,1.850000*%
%ADD27R,2.032000X1.727200*%
%ADD28O,2.032000X1.727200*%
%ADD29R,2.032000X2.032000*%
%ADD30O,2.032000X2.032000*%
%ADD31R,2.500000X0.750000*%
%ADD32R,1.500000X1.300000*%
%ADD33R,1.727200X1.727200*%
%ADD34O,1.727200X1.727200*%
%ADD35O,0.300000X0.850000*%
%ADD36O,0.850000X0.300000*%
%ADD37R,1.675000X1.675000*%
G04 APERTURE END LIST*
D10*
D11*
X128200000Y-71600000D03*
D12*
X128505000Y-114400000D03*
X128505000Y-117400000D03*
D13*
X130255000Y-113650000D03*
X130255000Y-116650000D03*
X130255000Y-118150000D03*
D14*
X127405000Y-112250000D03*
X127405000Y-119550000D03*
X129605000Y-119550000D03*
X129605000Y-112250000D03*
D15*
X135800000Y-113050000D03*
X135800000Y-114000000D03*
X135800000Y-114950000D03*
X138000000Y-114950000D03*
X138000000Y-113050000D03*
D16*
X137650000Y-120400000D03*
X135150000Y-120400000D03*
D17*
X151540000Y-96670000D03*
X150270000Y-96670000D03*
X149000000Y-96670000D03*
X147730000Y-96670000D03*
X146460000Y-96670000D03*
X146460000Y-100670000D03*
X147730000Y-100670000D03*
X151540000Y-100670000D03*
X150270000Y-100670000D03*
D18*
X160000000Y-77160000D03*
X160000000Y-79160000D03*
X160000000Y-81160000D03*
X160000000Y-83160000D03*
X160000000Y-85160000D03*
X160000000Y-87160000D03*
X160000000Y-89160000D03*
X160000000Y-91160000D03*
X160000000Y-93160000D03*
X160000000Y-95160000D03*
X138000000Y-95160000D03*
X138000000Y-93160000D03*
X138000000Y-91160000D03*
X138000000Y-89160000D03*
X138000000Y-87160000D03*
X138000000Y-85160000D03*
X138000000Y-83160000D03*
X138000000Y-81160000D03*
X138000000Y-79160000D03*
X138000000Y-77160000D03*
D17*
X149000000Y-100670000D03*
D19*
X132510000Y-117800000D03*
X132510000Y-120300000D03*
D20*
X147699100Y-118420000D03*
X148349100Y-118420000D03*
X148999100Y-118420000D03*
X149649100Y-118420000D03*
X150299100Y-118420000D03*
D21*
X146499100Y-118420000D03*
X151499100Y-118420000D03*
D22*
X145499100Y-121120000D03*
X152499100Y-121120000D03*
D23*
X155900000Y-109350000D03*
X155900000Y-106850000D03*
D19*
X132530000Y-115080000D03*
X132530000Y-112580000D03*
D24*
X141620980Y-109970000D03*
X143719020Y-109970000D03*
X141600980Y-107760000D03*
X143699020Y-107760000D03*
X142049020Y-118300000D03*
X139950980Y-118300000D03*
D25*
X129450000Y-104500000D03*
D26*
X129450000Y-107000000D03*
D27*
X133000000Y-75000000D03*
D28*
X133000000Y-77540000D03*
X133000000Y-80080000D03*
X133000000Y-82620000D03*
X133000000Y-85160000D03*
X133000000Y-87700000D03*
X133000000Y-90240000D03*
X133000000Y-92780000D03*
X133000000Y-95320000D03*
X133000000Y-97860000D03*
D29*
X169300000Y-118000000D03*
D30*
X169300000Y-120540000D03*
D29*
X165700000Y-118000000D03*
D30*
X165700000Y-120540000D03*
D31*
X169320000Y-113700000D03*
X169320000Y-112430000D03*
X169320000Y-111160000D03*
X169320000Y-109890000D03*
X169320000Y-108620000D03*
X165320000Y-108620000D03*
X165320000Y-109890000D03*
X165320000Y-113700000D03*
X165320000Y-112430000D03*
X165320000Y-111160000D03*
D27*
X165000000Y-75000000D03*
D28*
X165000000Y-77540000D03*
X165000000Y-80080000D03*
X165000000Y-82620000D03*
X165000000Y-85160000D03*
X165000000Y-87700000D03*
X165000000Y-90240000D03*
X165000000Y-92780000D03*
X165000000Y-95320000D03*
X165000000Y-97860000D03*
D32*
X136852329Y-109917869D03*
X139552329Y-109917869D03*
X136862329Y-107807869D03*
X139562329Y-107807869D03*
X137850000Y-118300000D03*
X135150000Y-118300000D03*
D33*
X133780000Y-109160000D03*
D34*
X133780000Y-106620000D03*
D16*
X154480000Y-113770000D03*
X151980000Y-113770000D03*
X143563432Y-113410654D03*
X146063432Y-113410654D03*
D32*
X151830000Y-115850000D03*
X154530000Y-115850000D03*
X146243432Y-115500654D03*
X143543432Y-115500654D03*
D35*
X148240000Y-111260000D03*
X148740000Y-111260000D03*
X149240000Y-111260000D03*
X149740000Y-111260000D03*
X150240000Y-111260000D03*
X150740000Y-111260000D03*
X151240000Y-111260000D03*
D36*
X152190000Y-110310000D03*
X152190000Y-109810000D03*
X152190000Y-109310000D03*
X152190000Y-108810000D03*
X152190000Y-108310000D03*
X152190000Y-107810000D03*
X152190000Y-107310000D03*
D35*
X151240000Y-106360000D03*
X150740000Y-106360000D03*
X150240000Y-106360000D03*
X149740000Y-106360000D03*
X149240000Y-106360000D03*
X148740000Y-106360000D03*
X148240000Y-106360000D03*
D36*
X147290000Y-107310000D03*
X147290000Y-107810000D03*
X147290000Y-108310000D03*
X147290000Y-108810000D03*
X147290000Y-109310000D03*
X147290000Y-109810000D03*
X147290000Y-110310000D03*
D37*
X150577500Y-107972500D03*
X148902500Y-107972500D03*
X150577500Y-109647500D03*
X148902500Y-109647500D03*
D11*
X128200000Y-100000000D03*
X169700000Y-100000000D03*
X169700000Y-71600000D03*
M02*
