G04 #@! TF.FileFunction,Soldermask,Bot*
%FSLAX46Y46*%
G04 Gerber Fmt 4.6, Leading zero omitted, Abs format (unit mm)*
G04 Created by KiCad (PCBNEW 4.0.4-stable) date 01/27/17 12:31:46*
%MOMM*%
%LPD*%
G01*
G04 APERTURE LIST*
%ADD10C,0.100000*%
%ADD11C,2.260600*%
%ADD12C,0.900000*%
%ADD13C,1.400000*%
%ADD14O,1.250000X0.950000*%
%ADD15O,1.000000X1.550000*%
%ADD16R,1.850000X1.850000*%
%ADD17C,1.850000*%
%ADD18R,2.032000X1.727200*%
%ADD19O,2.032000X1.727200*%
%ADD20R,2.032000X2.032000*%
%ADD21O,2.032000X2.032000*%
%ADD22R,1.727200X1.727200*%
%ADD23O,1.727200X1.727200*%
G04 APERTURE END LIST*
D10*
D11*
X128200000Y-71600000D03*
D12*
X128325000Y-114290000D03*
X128325000Y-117290000D03*
D13*
X160000000Y-77160000D03*
X160000000Y-79160000D03*
X160000000Y-81160000D03*
X160000000Y-83160000D03*
X160000000Y-85160000D03*
X160000000Y-87160000D03*
X160000000Y-89160000D03*
X160000000Y-91160000D03*
X160000000Y-93160000D03*
X160000000Y-95160000D03*
X138000000Y-95160000D03*
X138000000Y-93160000D03*
X138000000Y-91160000D03*
X138000000Y-89160000D03*
X138000000Y-87160000D03*
X138000000Y-85160000D03*
X138000000Y-83160000D03*
X138000000Y-81160000D03*
X138000000Y-79160000D03*
X138000000Y-77160000D03*
D14*
X146499100Y-118420000D03*
X151499100Y-118420000D03*
D15*
X145499100Y-121120000D03*
X152499100Y-121120000D03*
D16*
X128680000Y-107610000D03*
D17*
X128680000Y-105110000D03*
D18*
X133000000Y-75000000D03*
D19*
X133000000Y-77540000D03*
X133000000Y-80080000D03*
X133000000Y-82620000D03*
X133000000Y-85160000D03*
X133000000Y-87700000D03*
X133000000Y-90240000D03*
X133000000Y-92780000D03*
X133000000Y-95320000D03*
X133000000Y-97860000D03*
D20*
X168240000Y-118000000D03*
D21*
X168240000Y-120540000D03*
D20*
X165700000Y-118000000D03*
D21*
X165700000Y-120540000D03*
D18*
X165000000Y-75000000D03*
D19*
X165000000Y-77540000D03*
X165000000Y-80080000D03*
X165000000Y-82620000D03*
X165000000Y-85160000D03*
X165000000Y-87700000D03*
X165000000Y-90240000D03*
X165000000Y-92780000D03*
X165000000Y-95320000D03*
X165000000Y-97860000D03*
D22*
X134360000Y-108910000D03*
D23*
X134360000Y-106370000D03*
D11*
X128200000Y-100000000D03*
X169700000Y-100000000D03*
X169700000Y-71600000D03*
M02*
