G04 #@! TF.FileFunction,Paste,Top*
%FSLAX46Y46*%
G04 Gerber Fmt 4.6, Leading zero omitted, Abs format (unit mm)*
G04 Created by KiCad (PCBNEW 4.0.4-stable) date 01/27/17 12:31:46*
%MOMM*%
%LPD*%
G01*
G04 APERTURE LIST*
%ADD10C,0.100000*%
%ADD11R,1.500000X0.700000*%
%ADD12R,0.800000X1.000000*%
%ADD13R,1.060000X0.650000*%
%ADD14R,1.500000X1.250000*%
%ADD15R,0.750000X2.500000*%
%ADD16R,1.250000X1.500000*%
%ADD17R,0.400000X1.350000*%
%ADD18R,1.198880X1.198880*%
%ADD19R,2.500000X0.750000*%
%ADD20R,1.500000X1.300000*%
%ADD21O,0.300000X0.850000*%
%ADD22O,0.850000X0.300000*%
%ADD23R,1.005000X1.005000*%
G04 APERTURE END LIST*
D10*
D11*
X130075000Y-113540000D03*
X130075000Y-116540000D03*
X130075000Y-118040000D03*
D12*
X127225000Y-112140000D03*
X127225000Y-119440000D03*
X129425000Y-119440000D03*
X129425000Y-112140000D03*
D13*
X135800000Y-113050000D03*
X135800000Y-114000000D03*
X135800000Y-114950000D03*
X138000000Y-114950000D03*
X138000000Y-113050000D03*
D14*
X137650000Y-120400000D03*
X135150000Y-120400000D03*
D15*
X151540000Y-96670000D03*
X150270000Y-96670000D03*
X149000000Y-96670000D03*
X147730000Y-96670000D03*
X146460000Y-96670000D03*
X146460000Y-100670000D03*
X147730000Y-100670000D03*
X151540000Y-100670000D03*
X150270000Y-100670000D03*
X149000000Y-100670000D03*
D16*
X132510000Y-117800000D03*
X132510000Y-120300000D03*
D17*
X147699100Y-118420000D03*
X148349100Y-118420000D03*
X148999100Y-118420000D03*
X149649100Y-118420000D03*
X150299100Y-118420000D03*
D16*
X155900000Y-109350000D03*
X155900000Y-106850000D03*
X132530000Y-115080000D03*
X132530000Y-112580000D03*
D18*
X141620980Y-109970000D03*
X143719020Y-109970000D03*
X141600980Y-107760000D03*
X143699020Y-107760000D03*
X142049020Y-118300000D03*
X139950980Y-118300000D03*
D19*
X169320000Y-113700000D03*
X169320000Y-112430000D03*
X169320000Y-111160000D03*
X169320000Y-109890000D03*
X169320000Y-108620000D03*
X165320000Y-108620000D03*
X165320000Y-109890000D03*
X165320000Y-113700000D03*
X165320000Y-112430000D03*
X165320000Y-111160000D03*
D20*
X136852329Y-109917869D03*
X139552329Y-109917869D03*
X136862329Y-107807869D03*
X139562329Y-107807869D03*
X137850000Y-118300000D03*
X135150000Y-118300000D03*
D14*
X154480000Y-113770000D03*
X151980000Y-113770000D03*
X143563432Y-113410654D03*
X146063432Y-113410654D03*
D20*
X151830000Y-115850000D03*
X154530000Y-115850000D03*
X146243432Y-115500654D03*
X143543432Y-115500654D03*
D21*
X148240000Y-111260000D03*
X148740000Y-111260000D03*
X149240000Y-111260000D03*
X149740000Y-111260000D03*
X150240000Y-111260000D03*
X150740000Y-111260000D03*
X151240000Y-111260000D03*
D22*
X152190000Y-110310000D03*
X152190000Y-109810000D03*
X152190000Y-109310000D03*
X152190000Y-108810000D03*
X152190000Y-108310000D03*
X152190000Y-107810000D03*
X152190000Y-107310000D03*
D21*
X151240000Y-106360000D03*
X150740000Y-106360000D03*
X150240000Y-106360000D03*
X149740000Y-106360000D03*
X149240000Y-106360000D03*
X148740000Y-106360000D03*
X148240000Y-106360000D03*
D22*
X147290000Y-107310000D03*
X147290000Y-107810000D03*
X147290000Y-108310000D03*
X147290000Y-108810000D03*
X147290000Y-109310000D03*
X147290000Y-109810000D03*
X147290000Y-110310000D03*
D23*
X150577500Y-107972500D03*
X148902500Y-107972500D03*
X150577500Y-109647500D03*
X148902500Y-109647500D03*
M02*
