G04 #@! TF.FileFunction,Copper,L2,Bot,Signal*
%FSLAX46Y46*%
G04 Gerber Fmt 4.6, Leading zero omitted, Abs format (unit mm)*
G04 Created by KiCad (PCBNEW 4.0.4-stable) date 01/27/17 12:31:46*
%MOMM*%
%LPD*%
G01*
G04 APERTURE LIST*
%ADD10C,0.100000*%
%ADD11C,0.200000*%
%ADD12C,2.260600*%
%ADD13C,0.600000*%
%ADD14C,1.400000*%
%ADD15O,1.250000X0.950000*%
%ADD16O,1.000000X1.550000*%
%ADD17R,1.850000X1.850000*%
%ADD18C,1.850000*%
%ADD19R,2.032000X1.727200*%
%ADD20O,2.032000X1.727200*%
%ADD21R,2.032000X2.032000*%
%ADD22O,2.032000X2.032000*%
%ADD23R,1.727200X1.727200*%
%ADD24O,1.727200X1.727200*%
%ADD25C,0.500000*%
%ADD26C,0.203200*%
%ADD27C,0.254000*%
G04 APERTURE END LIST*
D10*
D11*
X139733333Y-72228571D02*
X139590476Y-72276190D01*
X139542857Y-72323810D01*
X139495238Y-72419048D01*
X139495238Y-72561905D01*
X139542857Y-72657143D01*
X139590476Y-72704762D01*
X139685714Y-72752381D01*
X140066667Y-72752381D01*
X140066667Y-71752381D01*
X139733333Y-71752381D01*
X139638095Y-71800000D01*
X139590476Y-71847619D01*
X139542857Y-71942857D01*
X139542857Y-72038095D01*
X139590476Y-72133333D01*
X139638095Y-72180952D01*
X139733333Y-72228571D01*
X140066667Y-72228571D01*
X138876191Y-71752381D02*
X138685714Y-71752381D01*
X138590476Y-71800000D01*
X138495238Y-71895238D01*
X138447619Y-72085714D01*
X138447619Y-72419048D01*
X138495238Y-72609524D01*
X138590476Y-72704762D01*
X138685714Y-72752381D01*
X138876191Y-72752381D01*
X138971429Y-72704762D01*
X139066667Y-72609524D01*
X139114286Y-72419048D01*
X139114286Y-72085714D01*
X139066667Y-71895238D01*
X138971429Y-71800000D01*
X138876191Y-71752381D01*
X138161905Y-71752381D02*
X137590476Y-71752381D01*
X137876191Y-72752381D02*
X137876191Y-71752381D01*
D12*
X128200000Y-71600000D03*
D13*
X163400000Y-105800000D03*
X137700000Y-100800000D03*
X132700000Y-100800000D03*
X149800000Y-90800000D03*
X149800000Y-85800000D03*
X149800000Y-80800000D03*
X149800000Y-75800000D03*
X127700000Y-95800000D03*
X127700000Y-90800000D03*
X127700000Y-85800000D03*
X127700000Y-80800000D03*
X127700000Y-75800000D03*
X169800000Y-105800000D03*
X169800000Y-95800000D03*
X169800000Y-90800000D03*
X169800000Y-85800000D03*
X169800000Y-80800000D03*
X169800000Y-75800000D03*
X134800000Y-70800000D03*
X144800000Y-70800000D03*
X149800000Y-70800000D03*
X164800000Y-70800000D03*
X159800000Y-70800000D03*
X154800000Y-70800000D03*
X157900000Y-100900000D03*
X153400000Y-101000000D03*
X128500000Y-121500000D03*
X158600000Y-113400000D03*
X170900000Y-115400000D03*
X167400000Y-115400000D03*
X163300000Y-116300000D03*
X158600000Y-110600000D03*
X142600000Y-111700000D03*
X139300000Y-111700000D03*
X140500000Y-121500000D03*
X143600000Y-121500000D03*
X137700000Y-116500000D03*
X139900000Y-114600000D03*
X150200000Y-114390000D03*
X154450000Y-117750000D03*
X150210000Y-114390000D03*
X163300000Y-121500000D03*
X160100000Y-121500000D03*
X157100000Y-121500000D03*
X158600000Y-116300000D03*
D14*
X160000000Y-77160000D03*
X160000000Y-79160000D03*
X160000000Y-81160000D03*
X160000000Y-83160000D03*
X160000000Y-85160000D03*
X160000000Y-87160000D03*
X160000000Y-89160000D03*
X160000000Y-91160000D03*
X160000000Y-93160000D03*
X160000000Y-95160000D03*
X138000000Y-95160000D03*
X138000000Y-93160000D03*
X138000000Y-91160000D03*
X138000000Y-89160000D03*
X138000000Y-87160000D03*
X138000000Y-85160000D03*
X138000000Y-83160000D03*
X138000000Y-81160000D03*
X138000000Y-79160000D03*
X138000000Y-77160000D03*
D13*
X153400000Y-96900000D03*
D15*
X146499100Y-118420000D03*
X151499100Y-118420000D03*
D16*
X145499100Y-121120000D03*
X152499100Y-121120000D03*
D17*
X128680000Y-107610000D03*
D18*
X128680000Y-105110000D03*
D19*
X133000000Y-75000000D03*
D20*
X133000000Y-77540000D03*
X133000000Y-80080000D03*
X133000000Y-82620000D03*
X133000000Y-85160000D03*
X133000000Y-87700000D03*
X133000000Y-90240000D03*
X133000000Y-92780000D03*
X133000000Y-95320000D03*
X133000000Y-97860000D03*
D21*
X168240000Y-118000000D03*
D22*
X168240000Y-120540000D03*
D21*
X165700000Y-118000000D03*
D22*
X165700000Y-120540000D03*
D19*
X165000000Y-75000000D03*
D20*
X165000000Y-77540000D03*
X165000000Y-80080000D03*
X165000000Y-82620000D03*
X165000000Y-85160000D03*
X165000000Y-87700000D03*
X165000000Y-90240000D03*
X165000000Y-92780000D03*
X165000000Y-95320000D03*
X165000000Y-97860000D03*
D23*
X134360000Y-108910000D03*
D24*
X134360000Y-106370000D03*
D25*
X149740000Y-108810000D03*
X149740000Y-107810000D03*
X150740000Y-108810000D03*
X150740000Y-107810000D03*
X148740000Y-107810000D03*
X148740000Y-108810000D03*
X148740000Y-109810000D03*
X149740000Y-109810000D03*
X150740000Y-109810000D03*
D12*
X128200000Y-100000000D03*
X169700000Y-100000000D03*
X169700000Y-71600000D03*
D13*
X155900000Y-111300000D03*
X150428335Y-112628335D03*
X141200000Y-120300000D03*
X131000000Y-121000000D03*
X143600000Y-119400000D03*
X141590000Y-96100000D03*
X146400000Y-93900000D03*
X144390000Y-86690000D03*
X145500000Y-110900000D03*
X144970000Y-108040000D03*
X145400000Y-105900000D03*
X148340000Y-114010000D03*
X149310000Y-115810000D03*
D26*
X150428335Y-112628335D02*
X154300000Y-112628335D01*
X155900000Y-111300000D02*
X154571665Y-112628335D01*
X154571665Y-112628335D02*
X154300000Y-112628335D01*
D27*
X131700000Y-120300000D02*
X141200000Y-120300000D01*
X131000000Y-121000000D02*
X131700000Y-120300000D01*
X165700000Y-118000000D02*
X166970000Y-118000000D01*
X166970000Y-118000000D02*
X168240000Y-118000000D01*
X161000000Y-119400000D02*
X162400000Y-118000000D01*
X162400000Y-118000000D02*
X165700000Y-118000000D01*
X143600000Y-119400000D02*
X161000000Y-119400000D01*
X141590000Y-96100000D02*
X144290000Y-93400000D01*
X144290000Y-93400000D02*
X145900000Y-93400000D01*
X145900000Y-93400000D02*
X146400000Y-93900000D01*
D26*
X138000000Y-85160000D02*
X142860000Y-85160000D01*
X142860000Y-85160000D02*
X144390000Y-86690000D01*
X145500000Y-110900000D02*
X142230000Y-110900000D01*
X142230000Y-110900000D02*
X136440000Y-105110000D01*
X136440000Y-105110000D02*
X136440000Y-97430000D01*
X136440000Y-97430000D02*
X134330000Y-95320000D01*
X134330000Y-95320000D02*
X133000000Y-95320000D01*
X154920000Y-87370000D02*
X157130000Y-85160000D01*
X157130000Y-85160000D02*
X160000000Y-85160000D01*
X154920000Y-101730000D02*
X154920000Y-87370000D01*
X153710000Y-102940000D02*
X154920000Y-101730000D01*
X146560000Y-102940000D02*
X153710000Y-102940000D01*
X144670001Y-104829999D02*
X146560000Y-102940000D01*
X144970000Y-108040000D02*
X144670001Y-107740001D01*
X144670001Y-107740001D02*
X144670001Y-104829999D01*
X145400000Y-105900000D02*
X145400000Y-105140000D01*
X156060000Y-95000000D02*
X157900000Y-93160000D01*
X145400000Y-105140000D02*
X146770000Y-103770000D01*
X146770000Y-103770000D02*
X154020000Y-103770000D01*
X154020000Y-103770000D02*
X156060000Y-101730000D01*
X156060000Y-101730000D02*
X156060000Y-95000000D01*
X157900000Y-93160000D02*
X160000000Y-93160000D01*
X149310000Y-115810000D02*
X148340000Y-114840000D01*
X148340000Y-114840000D02*
X148340000Y-114010000D01*
D27*
G36*
X168204324Y-70598732D02*
X167935007Y-71247320D01*
X167934395Y-71949599D01*
X168202579Y-72598656D01*
X168698732Y-73095676D01*
X169347320Y-73364993D01*
X170049599Y-73365605D01*
X170698656Y-73097421D01*
X171065000Y-72731716D01*
X171065000Y-98868692D01*
X170701268Y-98504324D01*
X170052680Y-98235007D01*
X169350401Y-98234395D01*
X168701344Y-98502579D01*
X168204324Y-98998732D01*
X167935007Y-99647320D01*
X167934395Y-100349599D01*
X168202579Y-100998656D01*
X168698732Y-101495676D01*
X169347320Y-101764993D01*
X170049599Y-101765605D01*
X170698656Y-101497421D01*
X171065000Y-101131716D01*
X171065000Y-121915000D01*
X169126025Y-121915000D01*
X169208379Y-121877188D01*
X169646385Y-121404818D01*
X169845975Y-120922944D01*
X169726836Y-120667000D01*
X168367000Y-120667000D01*
X168367000Y-120687000D01*
X168113000Y-120687000D01*
X168113000Y-120667000D01*
X165827000Y-120667000D01*
X165827000Y-120687000D01*
X165573000Y-120687000D01*
X165573000Y-120667000D01*
X164213164Y-120667000D01*
X164094025Y-120922944D01*
X164293615Y-121404818D01*
X164731621Y-121877188D01*
X164813975Y-121915000D01*
X153508929Y-121915000D01*
X153547703Y-121856970D01*
X153634100Y-121422624D01*
X153634100Y-120817376D01*
X153547703Y-120383030D01*
X153400015Y-120162000D01*
X161000000Y-120162000D01*
X161291605Y-120103996D01*
X161538815Y-119938815D01*
X162715630Y-118762000D01*
X164036560Y-118762000D01*
X164036560Y-119016000D01*
X164080838Y-119251317D01*
X164219910Y-119467441D01*
X164382948Y-119578840D01*
X164293615Y-119675182D01*
X164094025Y-120157056D01*
X164213164Y-120413000D01*
X165573000Y-120413000D01*
X165573000Y-120393000D01*
X165827000Y-120393000D01*
X165827000Y-120413000D01*
X168113000Y-120413000D01*
X168113000Y-120393000D01*
X168367000Y-120393000D01*
X168367000Y-120413000D01*
X169726836Y-120413000D01*
X169845975Y-120157056D01*
X169646385Y-119675182D01*
X169555903Y-119577602D01*
X169707441Y-119480090D01*
X169852431Y-119267890D01*
X169903440Y-119016000D01*
X169903440Y-116984000D01*
X169859162Y-116748683D01*
X169720090Y-116532559D01*
X169507890Y-116387569D01*
X169256000Y-116336560D01*
X167224000Y-116336560D01*
X166988683Y-116380838D01*
X166972901Y-116390993D01*
X166967890Y-116387569D01*
X166716000Y-116336560D01*
X164684000Y-116336560D01*
X164448683Y-116380838D01*
X164232559Y-116519910D01*
X164087569Y-116732110D01*
X164036560Y-116984000D01*
X164036560Y-117238000D01*
X162400000Y-117238000D01*
X162108395Y-117296004D01*
X162087449Y-117310000D01*
X161861185Y-117461185D01*
X160684370Y-118638000D01*
X152740422Y-118638000D01*
X152783785Y-118420000D01*
X152699291Y-117995221D01*
X152458674Y-117635111D01*
X152098564Y-117394494D01*
X151673785Y-117310000D01*
X151324415Y-117310000D01*
X150899636Y-117394494D01*
X150539526Y-117635111D01*
X150298909Y-117995221D01*
X150214415Y-118420000D01*
X150257778Y-118638000D01*
X147740422Y-118638000D01*
X147783785Y-118420000D01*
X147699291Y-117995221D01*
X147458674Y-117635111D01*
X147098564Y-117394494D01*
X146673785Y-117310000D01*
X146324415Y-117310000D01*
X145899636Y-117394494D01*
X145539526Y-117635111D01*
X145298909Y-117995221D01*
X145214415Y-118420000D01*
X145257778Y-118638000D01*
X144160466Y-118638000D01*
X144130327Y-118607808D01*
X143786799Y-118465162D01*
X143414833Y-118464838D01*
X143071057Y-118606883D01*
X142807808Y-118869673D01*
X142665162Y-119213201D01*
X142664838Y-119585167D01*
X142806883Y-119928943D01*
X143069673Y-120192192D01*
X143413201Y-120334838D01*
X143785167Y-120335162D01*
X144128943Y-120193117D01*
X144160114Y-120162000D01*
X144598185Y-120162000D01*
X144450497Y-120383030D01*
X144364100Y-120817376D01*
X144364100Y-121422624D01*
X144450497Y-121856970D01*
X144489271Y-121915000D01*
X131233963Y-121915000D01*
X131528943Y-121793117D01*
X131792192Y-121530327D01*
X131934838Y-121186799D01*
X131934876Y-121142754D01*
X132015631Y-121062000D01*
X140639534Y-121062000D01*
X140669673Y-121092192D01*
X141013201Y-121234838D01*
X141385167Y-121235162D01*
X141728943Y-121093117D01*
X141992192Y-120830327D01*
X142134838Y-120486799D01*
X142135162Y-120114833D01*
X141993117Y-119771057D01*
X141730327Y-119507808D01*
X141386799Y-119365162D01*
X141014833Y-119364838D01*
X140671057Y-119506883D01*
X140639886Y-119538000D01*
X131700000Y-119538000D01*
X131454672Y-119586799D01*
X131408395Y-119596004D01*
X131161184Y-119761185D01*
X130857494Y-120064875D01*
X130814833Y-120064838D01*
X130471057Y-120206883D01*
X130207808Y-120469673D01*
X130065162Y-120813201D01*
X130064838Y-121185167D01*
X130206883Y-121528943D01*
X130469673Y-121792192D01*
X130765426Y-121915000D01*
X126935000Y-121915000D01*
X126935000Y-117504873D01*
X127239812Y-117504873D01*
X127404646Y-117903800D01*
X127709595Y-118209282D01*
X128108233Y-118374811D01*
X128539873Y-118375188D01*
X128938800Y-118210354D01*
X129244282Y-117905405D01*
X129409811Y-117506767D01*
X129410188Y-117075127D01*
X129245354Y-116676200D01*
X128940405Y-116370718D01*
X128541767Y-116205189D01*
X128110127Y-116204812D01*
X127711200Y-116369646D01*
X127405718Y-116674595D01*
X127240189Y-117073233D01*
X127239812Y-117504873D01*
X126935000Y-117504873D01*
X126935000Y-114504873D01*
X127239812Y-114504873D01*
X127404646Y-114903800D01*
X127709595Y-115209282D01*
X128108233Y-115374811D01*
X128539873Y-115375188D01*
X128938800Y-115210354D01*
X129244282Y-114905405D01*
X129409811Y-114506767D01*
X129410083Y-114195167D01*
X147404838Y-114195167D01*
X147546883Y-114538943D01*
X147603400Y-114595559D01*
X147603400Y-114840000D01*
X147659470Y-115121885D01*
X147819145Y-115360855D01*
X148374906Y-115916616D01*
X148374838Y-115995167D01*
X148516883Y-116338943D01*
X148779673Y-116602192D01*
X149123201Y-116744838D01*
X149495167Y-116745162D01*
X149838943Y-116603117D01*
X150102192Y-116340327D01*
X150244838Y-115996799D01*
X150245162Y-115624833D01*
X150103117Y-115281057D01*
X149840327Y-115017808D01*
X149496799Y-114875162D01*
X149416802Y-114875092D01*
X149107093Y-114565383D01*
X149132192Y-114540327D01*
X149274838Y-114196799D01*
X149275162Y-113824833D01*
X149133117Y-113481057D01*
X148870327Y-113217808D01*
X148526799Y-113075162D01*
X148154833Y-113074838D01*
X147811057Y-113216883D01*
X147547808Y-113479673D01*
X147405162Y-113823201D01*
X147404838Y-114195167D01*
X129410083Y-114195167D01*
X129410188Y-114075127D01*
X129245354Y-113676200D01*
X128940405Y-113370718D01*
X128541767Y-113205189D01*
X128110127Y-113204812D01*
X127711200Y-113369646D01*
X127405718Y-113674595D01*
X127240189Y-114073233D01*
X127239812Y-114504873D01*
X126935000Y-114504873D01*
X126935000Y-112813502D01*
X149493173Y-112813502D01*
X149635218Y-113157278D01*
X149898008Y-113420527D01*
X150241536Y-113563173D01*
X150613502Y-113563497D01*
X150957278Y-113421452D01*
X151013894Y-113364935D01*
X154571665Y-113364935D01*
X154853550Y-113308865D01*
X155092520Y-113149190D01*
X156006616Y-112235094D01*
X156085167Y-112235162D01*
X156428943Y-112093117D01*
X156692192Y-111830327D01*
X156834838Y-111486799D01*
X156835162Y-111114833D01*
X156693117Y-110771057D01*
X156430327Y-110507808D01*
X156086799Y-110365162D01*
X155714833Y-110364838D01*
X155371057Y-110506883D01*
X155107808Y-110769673D01*
X154965162Y-111113201D01*
X154965092Y-111193198D01*
X154266555Y-111891735D01*
X151014157Y-111891735D01*
X150958662Y-111836143D01*
X150615134Y-111693497D01*
X150243168Y-111693173D01*
X149899392Y-111835218D01*
X149636143Y-112098008D01*
X149493497Y-112441536D01*
X149493173Y-112813502D01*
X126935000Y-112813502D01*
X126935000Y-107895750D01*
X127120000Y-107895750D01*
X127120000Y-108661309D01*
X127216673Y-108894698D01*
X127395301Y-109073327D01*
X127628690Y-109170000D01*
X128394250Y-109170000D01*
X128553000Y-109011250D01*
X128553000Y-107737000D01*
X128807000Y-107737000D01*
X128807000Y-109011250D01*
X128965750Y-109170000D01*
X129731310Y-109170000D01*
X129964699Y-109073327D01*
X130143327Y-108894698D01*
X130240000Y-108661309D01*
X130240000Y-108046400D01*
X132848960Y-108046400D01*
X132848960Y-109773600D01*
X132893238Y-110008917D01*
X133032310Y-110225041D01*
X133244510Y-110370031D01*
X133496400Y-110421040D01*
X135223600Y-110421040D01*
X135458917Y-110376762D01*
X135675041Y-110237690D01*
X135820031Y-110025490D01*
X135871040Y-109773600D01*
X135871040Y-108046400D01*
X135826762Y-107811083D01*
X135687690Y-107594959D01*
X135475490Y-107449969D01*
X135431655Y-107441092D01*
X135744526Y-106972848D01*
X135858600Y-106399359D01*
X135858600Y-106340641D01*
X135744526Y-105767152D01*
X135419670Y-105280971D01*
X134933489Y-104956115D01*
X134360000Y-104842041D01*
X133786511Y-104956115D01*
X133300330Y-105280971D01*
X132975474Y-105767152D01*
X132861400Y-106340641D01*
X132861400Y-106399359D01*
X132975474Y-106972848D01*
X133286574Y-107438442D01*
X133261083Y-107443238D01*
X133044959Y-107582310D01*
X132899969Y-107794510D01*
X132848960Y-108046400D01*
X130240000Y-108046400D01*
X130240000Y-107895750D01*
X130081250Y-107737000D01*
X128807000Y-107737000D01*
X128553000Y-107737000D01*
X127278750Y-107737000D01*
X127120000Y-107895750D01*
X126935000Y-107895750D01*
X126935000Y-105418942D01*
X127119730Y-105418942D01*
X127356725Y-105992514D01*
X127476882Y-106112881D01*
X127395301Y-106146673D01*
X127216673Y-106325302D01*
X127120000Y-106558691D01*
X127120000Y-107324250D01*
X127278750Y-107483000D01*
X128553000Y-107483000D01*
X128553000Y-107463000D01*
X128807000Y-107463000D01*
X128807000Y-107483000D01*
X130081250Y-107483000D01*
X130240000Y-107324250D01*
X130240000Y-106558691D01*
X130143327Y-106325302D01*
X129964699Y-106146673D01*
X129883365Y-106112983D01*
X130001732Y-105994823D01*
X130239728Y-105421664D01*
X130240270Y-104801058D01*
X130003275Y-104227486D01*
X129564823Y-103788268D01*
X128991664Y-103550272D01*
X128371058Y-103549730D01*
X127797486Y-103786725D01*
X127358268Y-104225177D01*
X127120272Y-104798336D01*
X127119730Y-105418942D01*
X126935000Y-105418942D01*
X126935000Y-101231483D01*
X127198732Y-101495676D01*
X127847320Y-101764993D01*
X128549599Y-101765605D01*
X129198656Y-101497421D01*
X129695676Y-101001268D01*
X129964993Y-100352680D01*
X129965605Y-99650401D01*
X129697421Y-99001344D01*
X129201268Y-98504324D01*
X128552680Y-98235007D01*
X127850401Y-98234395D01*
X127201344Y-98502579D01*
X126935000Y-98768458D01*
X126935000Y-98219026D01*
X131392642Y-98219026D01*
X131395291Y-98234791D01*
X131649268Y-98762036D01*
X132085680Y-99151954D01*
X132638087Y-99345184D01*
X132873000Y-99200924D01*
X132873000Y-97987000D01*
X133127000Y-97987000D01*
X133127000Y-99200924D01*
X133361913Y-99345184D01*
X133914320Y-99151954D01*
X134350732Y-98762036D01*
X134604709Y-98234791D01*
X134607358Y-98219026D01*
X134486217Y-97987000D01*
X133127000Y-97987000D01*
X132873000Y-97987000D01*
X131513783Y-97987000D01*
X131392642Y-98219026D01*
X126935000Y-98219026D01*
X126935000Y-77540000D01*
X131316655Y-77540000D01*
X131430729Y-78113489D01*
X131755585Y-78599670D01*
X132070366Y-78810000D01*
X131755585Y-79020330D01*
X131430729Y-79506511D01*
X131316655Y-80080000D01*
X131430729Y-80653489D01*
X131755585Y-81139670D01*
X132070366Y-81350000D01*
X131755585Y-81560330D01*
X131430729Y-82046511D01*
X131316655Y-82620000D01*
X131430729Y-83193489D01*
X131755585Y-83679670D01*
X132070366Y-83890000D01*
X131755585Y-84100330D01*
X131430729Y-84586511D01*
X131316655Y-85160000D01*
X131430729Y-85733489D01*
X131755585Y-86219670D01*
X132070366Y-86430000D01*
X131755585Y-86640330D01*
X131430729Y-87126511D01*
X131316655Y-87700000D01*
X131430729Y-88273489D01*
X131755585Y-88759670D01*
X132070366Y-88970000D01*
X131755585Y-89180330D01*
X131430729Y-89666511D01*
X131316655Y-90240000D01*
X131430729Y-90813489D01*
X131755585Y-91299670D01*
X132070366Y-91510000D01*
X131755585Y-91720330D01*
X131430729Y-92206511D01*
X131316655Y-92780000D01*
X131430729Y-93353489D01*
X131755585Y-93839670D01*
X132070366Y-94050000D01*
X131755585Y-94260330D01*
X131430729Y-94746511D01*
X131316655Y-95320000D01*
X131430729Y-95893489D01*
X131755585Y-96379670D01*
X132065069Y-96586461D01*
X131649268Y-96957964D01*
X131395291Y-97485209D01*
X131392642Y-97500974D01*
X131513783Y-97733000D01*
X132873000Y-97733000D01*
X132873000Y-97713000D01*
X133127000Y-97713000D01*
X133127000Y-97733000D01*
X134486217Y-97733000D01*
X134607358Y-97500974D01*
X134604709Y-97485209D01*
X134350732Y-96957964D01*
X133934931Y-96586461D01*
X134244415Y-96379670D01*
X134285889Y-96317599D01*
X135703400Y-97735110D01*
X135703400Y-105110000D01*
X135759470Y-105391885D01*
X135919145Y-105630855D01*
X141709145Y-111420855D01*
X141948116Y-111580531D01*
X142230000Y-111636601D01*
X142230005Y-111636600D01*
X144914178Y-111636600D01*
X144969673Y-111692192D01*
X145313201Y-111834838D01*
X145685167Y-111835162D01*
X146028943Y-111693117D01*
X146292192Y-111430327D01*
X146434838Y-111086799D01*
X146435162Y-110714833D01*
X146293117Y-110371057D01*
X146030327Y-110107808D01*
X145686799Y-109965162D01*
X145314833Y-109964838D01*
X144971057Y-110106883D01*
X144914441Y-110163400D01*
X142535110Y-110163400D01*
X137201709Y-104829999D01*
X143933401Y-104829999D01*
X143933401Y-107740001D01*
X143989471Y-108021886D01*
X144034956Y-108089959D01*
X144034838Y-108225167D01*
X144176883Y-108568943D01*
X144439673Y-108832192D01*
X144783201Y-108974838D01*
X145155167Y-108975162D01*
X145498943Y-108833117D01*
X145762192Y-108570327D01*
X145904838Y-108226799D01*
X145905162Y-107854833D01*
X145763117Y-107511057D01*
X145500327Y-107247808D01*
X145406601Y-107208889D01*
X145406601Y-106835006D01*
X145585167Y-106835162D01*
X145928943Y-106693117D01*
X146192192Y-106430327D01*
X146334838Y-106086799D01*
X146335162Y-105714833D01*
X146198244Y-105383466D01*
X147075110Y-104506600D01*
X154020000Y-104506600D01*
X154301885Y-104450530D01*
X154540855Y-104290855D01*
X156580855Y-102250855D01*
X156612563Y-102203400D01*
X156740530Y-102011885D01*
X156796600Y-101730000D01*
X156796600Y-95305110D01*
X158205110Y-93896600D01*
X158859885Y-93896600D01*
X158867582Y-93915229D01*
X159112024Y-94160098D01*
X158868902Y-94402796D01*
X158665232Y-94893287D01*
X158664769Y-95424383D01*
X158867582Y-95915229D01*
X159242796Y-96291098D01*
X159733287Y-96494768D01*
X160264383Y-96495231D01*
X160755229Y-96292418D01*
X161131098Y-95917204D01*
X161334768Y-95426713D01*
X161335231Y-94895617D01*
X161132418Y-94404771D01*
X160887976Y-94159902D01*
X161131098Y-93917204D01*
X161334768Y-93426713D01*
X161335231Y-92895617D01*
X161132418Y-92404771D01*
X160887976Y-92159902D01*
X161131098Y-91917204D01*
X161334768Y-91426713D01*
X161335231Y-90895617D01*
X161132418Y-90404771D01*
X160887976Y-90159902D01*
X161131098Y-89917204D01*
X161334768Y-89426713D01*
X161335231Y-88895617D01*
X161132418Y-88404771D01*
X160887976Y-88159902D01*
X161131098Y-87917204D01*
X161334768Y-87426713D01*
X161335231Y-86895617D01*
X161132418Y-86404771D01*
X160887976Y-86159902D01*
X161131098Y-85917204D01*
X161334768Y-85426713D01*
X161335231Y-84895617D01*
X161132418Y-84404771D01*
X160887976Y-84159902D01*
X161131098Y-83917204D01*
X161334768Y-83426713D01*
X161335231Y-82895617D01*
X161132418Y-82404771D01*
X160887976Y-82159902D01*
X161131098Y-81917204D01*
X161334768Y-81426713D01*
X161335231Y-80895617D01*
X161132418Y-80404771D01*
X160887976Y-80159902D01*
X161131098Y-79917204D01*
X161334768Y-79426713D01*
X161335231Y-78895617D01*
X161132418Y-78404771D01*
X160887976Y-78159902D01*
X161131098Y-77917204D01*
X161287727Y-77540000D01*
X163316655Y-77540000D01*
X163430729Y-78113489D01*
X163755585Y-78599670D01*
X164070366Y-78810000D01*
X163755585Y-79020330D01*
X163430729Y-79506511D01*
X163316655Y-80080000D01*
X163430729Y-80653489D01*
X163755585Y-81139670D01*
X164070366Y-81350000D01*
X163755585Y-81560330D01*
X163430729Y-82046511D01*
X163316655Y-82620000D01*
X163430729Y-83193489D01*
X163755585Y-83679670D01*
X164070366Y-83890000D01*
X163755585Y-84100330D01*
X163430729Y-84586511D01*
X163316655Y-85160000D01*
X163430729Y-85733489D01*
X163755585Y-86219670D01*
X164070366Y-86430000D01*
X163755585Y-86640330D01*
X163430729Y-87126511D01*
X163316655Y-87700000D01*
X163430729Y-88273489D01*
X163755585Y-88759670D01*
X164070366Y-88970000D01*
X163755585Y-89180330D01*
X163430729Y-89666511D01*
X163316655Y-90240000D01*
X163430729Y-90813489D01*
X163755585Y-91299670D01*
X164070366Y-91510000D01*
X163755585Y-91720330D01*
X163430729Y-92206511D01*
X163316655Y-92780000D01*
X163430729Y-93353489D01*
X163755585Y-93839670D01*
X164070366Y-94050000D01*
X163755585Y-94260330D01*
X163430729Y-94746511D01*
X163316655Y-95320000D01*
X163430729Y-95893489D01*
X163755585Y-96379670D01*
X164070366Y-96590000D01*
X163755585Y-96800330D01*
X163430729Y-97286511D01*
X163316655Y-97860000D01*
X163430729Y-98433489D01*
X163755585Y-98919670D01*
X164241766Y-99244526D01*
X164815255Y-99358600D01*
X165184745Y-99358600D01*
X165758234Y-99244526D01*
X166244415Y-98919670D01*
X166569271Y-98433489D01*
X166683345Y-97860000D01*
X166569271Y-97286511D01*
X166244415Y-96800330D01*
X165929634Y-96590000D01*
X166244415Y-96379670D01*
X166569271Y-95893489D01*
X166683345Y-95320000D01*
X166569271Y-94746511D01*
X166244415Y-94260330D01*
X165929634Y-94050000D01*
X166244415Y-93839670D01*
X166569271Y-93353489D01*
X166683345Y-92780000D01*
X166569271Y-92206511D01*
X166244415Y-91720330D01*
X165929634Y-91510000D01*
X166244415Y-91299670D01*
X166569271Y-90813489D01*
X166683345Y-90240000D01*
X166569271Y-89666511D01*
X166244415Y-89180330D01*
X165929634Y-88970000D01*
X166244415Y-88759670D01*
X166569271Y-88273489D01*
X166683345Y-87700000D01*
X166569271Y-87126511D01*
X166244415Y-86640330D01*
X165929634Y-86430000D01*
X166244415Y-86219670D01*
X166569271Y-85733489D01*
X166683345Y-85160000D01*
X166569271Y-84586511D01*
X166244415Y-84100330D01*
X165929634Y-83890000D01*
X166244415Y-83679670D01*
X166569271Y-83193489D01*
X166683345Y-82620000D01*
X166569271Y-82046511D01*
X166244415Y-81560330D01*
X165929634Y-81350000D01*
X166244415Y-81139670D01*
X166569271Y-80653489D01*
X166683345Y-80080000D01*
X166569271Y-79506511D01*
X166244415Y-79020330D01*
X165929634Y-78810000D01*
X166244415Y-78599670D01*
X166569271Y-78113489D01*
X166683345Y-77540000D01*
X166569271Y-76966511D01*
X166244415Y-76480330D01*
X166230087Y-76470757D01*
X166251317Y-76466762D01*
X166467441Y-76327690D01*
X166612431Y-76115490D01*
X166663440Y-75863600D01*
X166663440Y-74136400D01*
X166619162Y-73901083D01*
X166480090Y-73684959D01*
X166267890Y-73539969D01*
X166016000Y-73488960D01*
X163984000Y-73488960D01*
X163748683Y-73533238D01*
X163532559Y-73672310D01*
X163387569Y-73884510D01*
X163336560Y-74136400D01*
X163336560Y-75863600D01*
X163380838Y-76098917D01*
X163519910Y-76315041D01*
X163732110Y-76460031D01*
X163773439Y-76468400D01*
X163755585Y-76480330D01*
X163430729Y-76966511D01*
X163316655Y-77540000D01*
X161287727Y-77540000D01*
X161334768Y-77426713D01*
X161335231Y-76895617D01*
X161132418Y-76404771D01*
X160757204Y-76028902D01*
X160266713Y-75825232D01*
X159735617Y-75824769D01*
X159244771Y-76027582D01*
X158868902Y-76402796D01*
X158665232Y-76893287D01*
X158664769Y-77424383D01*
X158867582Y-77915229D01*
X159112024Y-78160098D01*
X158868902Y-78402796D01*
X158665232Y-78893287D01*
X158664769Y-79424383D01*
X158867582Y-79915229D01*
X159112024Y-80160098D01*
X158868902Y-80402796D01*
X158665232Y-80893287D01*
X158664769Y-81424383D01*
X158867582Y-81915229D01*
X159112024Y-82160098D01*
X158868902Y-82402796D01*
X158665232Y-82893287D01*
X158664769Y-83424383D01*
X158867582Y-83915229D01*
X159112024Y-84160098D01*
X158868902Y-84402796D01*
X158860346Y-84423400D01*
X157130000Y-84423400D01*
X156848115Y-84479470D01*
X156609145Y-84639145D01*
X154399145Y-86849145D01*
X154239470Y-87088115D01*
X154183400Y-87370000D01*
X154183400Y-101424890D01*
X153404890Y-102203400D01*
X146560000Y-102203400D01*
X146278115Y-102259470D01*
X146039145Y-102419145D01*
X144149146Y-104309144D01*
X143989471Y-104548114D01*
X143933401Y-104829999D01*
X137201709Y-104829999D01*
X137176600Y-104804890D01*
X137176600Y-97430000D01*
X137120530Y-97148115D01*
X136960855Y-96909145D01*
X136146985Y-96095275D01*
X137244331Y-96095275D01*
X137306169Y-96331042D01*
X137807122Y-96507419D01*
X138337440Y-96478664D01*
X138693831Y-96331042D01*
X138705863Y-96285167D01*
X140654838Y-96285167D01*
X140796883Y-96628943D01*
X141059673Y-96892192D01*
X141403201Y-97034838D01*
X141775167Y-97035162D01*
X142118943Y-96893117D01*
X142382192Y-96630327D01*
X142524838Y-96286799D01*
X142524876Y-96242754D01*
X144605631Y-94162000D01*
X145496585Y-94162000D01*
X145606883Y-94428943D01*
X145869673Y-94692192D01*
X146213201Y-94834838D01*
X146585167Y-94835162D01*
X146928943Y-94693117D01*
X147192192Y-94430327D01*
X147334838Y-94086799D01*
X147335162Y-93714833D01*
X147193117Y-93371057D01*
X146930327Y-93107808D01*
X146586799Y-92965162D01*
X146542754Y-92965124D01*
X146438815Y-92861185D01*
X146317313Y-92780000D01*
X146191605Y-92696004D01*
X145900000Y-92638000D01*
X144290000Y-92638000D01*
X143998395Y-92696004D01*
X143899377Y-92762166D01*
X143751185Y-92861184D01*
X141447495Y-95164875D01*
X141404833Y-95164838D01*
X141061057Y-95306883D01*
X140797808Y-95569673D01*
X140655162Y-95913201D01*
X140654838Y-96285167D01*
X138705863Y-96285167D01*
X138755669Y-96095275D01*
X138000000Y-95339605D01*
X137244331Y-96095275D01*
X136146985Y-96095275D01*
X135018832Y-94967122D01*
X136652581Y-94967122D01*
X136681336Y-95497440D01*
X136828958Y-95853831D01*
X137064725Y-95915669D01*
X137820395Y-95160000D01*
X138179605Y-95160000D01*
X138935275Y-95915669D01*
X139171042Y-95853831D01*
X139347419Y-95352878D01*
X139318664Y-94822560D01*
X139171042Y-94466169D01*
X138935275Y-94404331D01*
X138179605Y-95160000D01*
X137820395Y-95160000D01*
X137064725Y-94404331D01*
X136828958Y-94466169D01*
X136652581Y-94967122D01*
X135018832Y-94967122D01*
X134850855Y-94799145D01*
X134611885Y-94639470D01*
X134480254Y-94613287D01*
X134244415Y-94260330D01*
X133929634Y-94050000D01*
X134244415Y-93839670D01*
X134569271Y-93353489D01*
X134683345Y-92780000D01*
X134569271Y-92206511D01*
X134244415Y-91720330D01*
X133929634Y-91510000D01*
X134244415Y-91299670D01*
X134569271Y-90813489D01*
X134683345Y-90240000D01*
X134569271Y-89666511D01*
X134244415Y-89180330D01*
X133929634Y-88970000D01*
X134244415Y-88759670D01*
X134569271Y-88273489D01*
X134683345Y-87700000D01*
X134569271Y-87126511D01*
X134244415Y-86640330D01*
X133929634Y-86430000D01*
X134244415Y-86219670D01*
X134569271Y-85733489D01*
X134683345Y-85160000D01*
X134569271Y-84586511D01*
X134244415Y-84100330D01*
X133929634Y-83890000D01*
X134244415Y-83679670D01*
X134569271Y-83193489D01*
X134683345Y-82620000D01*
X134569271Y-82046511D01*
X134244415Y-81560330D01*
X133929634Y-81350000D01*
X134244415Y-81139670D01*
X134569271Y-80653489D01*
X134683345Y-80080000D01*
X134569271Y-79506511D01*
X134244415Y-79020330D01*
X133929634Y-78810000D01*
X134244415Y-78599670D01*
X134569271Y-78113489D01*
X134683345Y-77540000D01*
X134660348Y-77424383D01*
X136664769Y-77424383D01*
X136867582Y-77915229D01*
X137112024Y-78160098D01*
X136868902Y-78402796D01*
X136665232Y-78893287D01*
X136664769Y-79424383D01*
X136867582Y-79915229D01*
X137112024Y-80160098D01*
X136868902Y-80402796D01*
X136665232Y-80893287D01*
X136664769Y-81424383D01*
X136867582Y-81915229D01*
X137112024Y-82160098D01*
X136868902Y-82402796D01*
X136665232Y-82893287D01*
X136664769Y-83424383D01*
X136867582Y-83915229D01*
X137112024Y-84160098D01*
X136868902Y-84402796D01*
X136665232Y-84893287D01*
X136664769Y-85424383D01*
X136867582Y-85915229D01*
X137112024Y-86160098D01*
X136868902Y-86402796D01*
X136665232Y-86893287D01*
X136664769Y-87424383D01*
X136867582Y-87915229D01*
X137112024Y-88160098D01*
X136868902Y-88402796D01*
X136665232Y-88893287D01*
X136664769Y-89424383D01*
X136867582Y-89915229D01*
X137112024Y-90160098D01*
X136868902Y-90402796D01*
X136665232Y-90893287D01*
X136664769Y-91424383D01*
X136867582Y-91915229D01*
X137112024Y-92160098D01*
X136868902Y-92402796D01*
X136665232Y-92893287D01*
X136664769Y-93424383D01*
X136867582Y-93915229D01*
X137242796Y-94291098D01*
X137358925Y-94339319D01*
X138000000Y-94980395D01*
X138640621Y-94339773D01*
X138755229Y-94292418D01*
X139131098Y-93917204D01*
X139334768Y-93426713D01*
X139335231Y-92895617D01*
X139132418Y-92404771D01*
X138887976Y-92159902D01*
X139131098Y-91917204D01*
X139334768Y-91426713D01*
X139335231Y-90895617D01*
X139132418Y-90404771D01*
X138887976Y-90159902D01*
X139131098Y-89917204D01*
X139334768Y-89426713D01*
X139335231Y-88895617D01*
X139132418Y-88404771D01*
X138887976Y-88159902D01*
X139131098Y-87917204D01*
X139334768Y-87426713D01*
X139335231Y-86895617D01*
X139132418Y-86404771D01*
X138887976Y-86159902D01*
X139131098Y-85917204D01*
X139139654Y-85896600D01*
X142554890Y-85896600D01*
X143454906Y-86796616D01*
X143454838Y-86875167D01*
X143596883Y-87218943D01*
X143859673Y-87482192D01*
X144203201Y-87624838D01*
X144575167Y-87625162D01*
X144918943Y-87483117D01*
X145182192Y-87220327D01*
X145324838Y-86876799D01*
X145325162Y-86504833D01*
X145183117Y-86161057D01*
X144920327Y-85897808D01*
X144576799Y-85755162D01*
X144496802Y-85755092D01*
X143380855Y-84639145D01*
X143141885Y-84479470D01*
X142860000Y-84423400D01*
X139140115Y-84423400D01*
X139132418Y-84404771D01*
X138887976Y-84159902D01*
X139131098Y-83917204D01*
X139334768Y-83426713D01*
X139335231Y-82895617D01*
X139132418Y-82404771D01*
X138887976Y-82159902D01*
X139131098Y-81917204D01*
X139334768Y-81426713D01*
X139335231Y-80895617D01*
X139132418Y-80404771D01*
X138887976Y-80159902D01*
X139131098Y-79917204D01*
X139334768Y-79426713D01*
X139335231Y-78895617D01*
X139132418Y-78404771D01*
X138887976Y-78159902D01*
X139131098Y-77917204D01*
X139334768Y-77426713D01*
X139335231Y-76895617D01*
X139132418Y-76404771D01*
X138757204Y-76028902D01*
X138266713Y-75825232D01*
X137735617Y-75824769D01*
X137244771Y-76027582D01*
X136868902Y-76402796D01*
X136665232Y-76893287D01*
X136664769Y-77424383D01*
X134660348Y-77424383D01*
X134569271Y-76966511D01*
X134244415Y-76480330D01*
X134230087Y-76470757D01*
X134251317Y-76466762D01*
X134467441Y-76327690D01*
X134612431Y-76115490D01*
X134663440Y-75863600D01*
X134663440Y-74136400D01*
X134619162Y-73901083D01*
X134480090Y-73684959D01*
X134267890Y-73539969D01*
X134016000Y-73488960D01*
X131984000Y-73488960D01*
X131748683Y-73533238D01*
X131532559Y-73672310D01*
X131387569Y-73884510D01*
X131336560Y-74136400D01*
X131336560Y-75863600D01*
X131380838Y-76098917D01*
X131519910Y-76315041D01*
X131732110Y-76460031D01*
X131773439Y-76468400D01*
X131755585Y-76480330D01*
X131430729Y-76966511D01*
X131316655Y-77540000D01*
X126935000Y-77540000D01*
X126935000Y-72831483D01*
X127198732Y-73095676D01*
X127847320Y-73364993D01*
X128549599Y-73365605D01*
X129198656Y-73097421D01*
X129695676Y-72601268D01*
X129964993Y-71952680D01*
X129965605Y-71250401D01*
X129806362Y-70865000D01*
X136860238Y-70865000D01*
X136860238Y-73835000D01*
X140939762Y-73835000D01*
X140939762Y-70865000D01*
X136860238Y-70865000D01*
X129806362Y-70865000D01*
X129697421Y-70601344D01*
X129381629Y-70285000D01*
X168518604Y-70285000D01*
X168204324Y-70598732D01*
X168204324Y-70598732D01*
G37*
X168204324Y-70598732D02*
X167935007Y-71247320D01*
X167934395Y-71949599D01*
X168202579Y-72598656D01*
X168698732Y-73095676D01*
X169347320Y-73364993D01*
X170049599Y-73365605D01*
X170698656Y-73097421D01*
X171065000Y-72731716D01*
X171065000Y-98868692D01*
X170701268Y-98504324D01*
X170052680Y-98235007D01*
X169350401Y-98234395D01*
X168701344Y-98502579D01*
X168204324Y-98998732D01*
X167935007Y-99647320D01*
X167934395Y-100349599D01*
X168202579Y-100998656D01*
X168698732Y-101495676D01*
X169347320Y-101764993D01*
X170049599Y-101765605D01*
X170698656Y-101497421D01*
X171065000Y-101131716D01*
X171065000Y-121915000D01*
X169126025Y-121915000D01*
X169208379Y-121877188D01*
X169646385Y-121404818D01*
X169845975Y-120922944D01*
X169726836Y-120667000D01*
X168367000Y-120667000D01*
X168367000Y-120687000D01*
X168113000Y-120687000D01*
X168113000Y-120667000D01*
X165827000Y-120667000D01*
X165827000Y-120687000D01*
X165573000Y-120687000D01*
X165573000Y-120667000D01*
X164213164Y-120667000D01*
X164094025Y-120922944D01*
X164293615Y-121404818D01*
X164731621Y-121877188D01*
X164813975Y-121915000D01*
X153508929Y-121915000D01*
X153547703Y-121856970D01*
X153634100Y-121422624D01*
X153634100Y-120817376D01*
X153547703Y-120383030D01*
X153400015Y-120162000D01*
X161000000Y-120162000D01*
X161291605Y-120103996D01*
X161538815Y-119938815D01*
X162715630Y-118762000D01*
X164036560Y-118762000D01*
X164036560Y-119016000D01*
X164080838Y-119251317D01*
X164219910Y-119467441D01*
X164382948Y-119578840D01*
X164293615Y-119675182D01*
X164094025Y-120157056D01*
X164213164Y-120413000D01*
X165573000Y-120413000D01*
X165573000Y-120393000D01*
X165827000Y-120393000D01*
X165827000Y-120413000D01*
X168113000Y-120413000D01*
X168113000Y-120393000D01*
X168367000Y-120393000D01*
X168367000Y-120413000D01*
X169726836Y-120413000D01*
X169845975Y-120157056D01*
X169646385Y-119675182D01*
X169555903Y-119577602D01*
X169707441Y-119480090D01*
X169852431Y-119267890D01*
X169903440Y-119016000D01*
X169903440Y-116984000D01*
X169859162Y-116748683D01*
X169720090Y-116532559D01*
X169507890Y-116387569D01*
X169256000Y-116336560D01*
X167224000Y-116336560D01*
X166988683Y-116380838D01*
X166972901Y-116390993D01*
X166967890Y-116387569D01*
X166716000Y-116336560D01*
X164684000Y-116336560D01*
X164448683Y-116380838D01*
X164232559Y-116519910D01*
X164087569Y-116732110D01*
X164036560Y-116984000D01*
X164036560Y-117238000D01*
X162400000Y-117238000D01*
X162108395Y-117296004D01*
X162087449Y-117310000D01*
X161861185Y-117461185D01*
X160684370Y-118638000D01*
X152740422Y-118638000D01*
X152783785Y-118420000D01*
X152699291Y-117995221D01*
X152458674Y-117635111D01*
X152098564Y-117394494D01*
X151673785Y-117310000D01*
X151324415Y-117310000D01*
X150899636Y-117394494D01*
X150539526Y-117635111D01*
X150298909Y-117995221D01*
X150214415Y-118420000D01*
X150257778Y-118638000D01*
X147740422Y-118638000D01*
X147783785Y-118420000D01*
X147699291Y-117995221D01*
X147458674Y-117635111D01*
X147098564Y-117394494D01*
X146673785Y-117310000D01*
X146324415Y-117310000D01*
X145899636Y-117394494D01*
X145539526Y-117635111D01*
X145298909Y-117995221D01*
X145214415Y-118420000D01*
X145257778Y-118638000D01*
X144160466Y-118638000D01*
X144130327Y-118607808D01*
X143786799Y-118465162D01*
X143414833Y-118464838D01*
X143071057Y-118606883D01*
X142807808Y-118869673D01*
X142665162Y-119213201D01*
X142664838Y-119585167D01*
X142806883Y-119928943D01*
X143069673Y-120192192D01*
X143413201Y-120334838D01*
X143785167Y-120335162D01*
X144128943Y-120193117D01*
X144160114Y-120162000D01*
X144598185Y-120162000D01*
X144450497Y-120383030D01*
X144364100Y-120817376D01*
X144364100Y-121422624D01*
X144450497Y-121856970D01*
X144489271Y-121915000D01*
X131233963Y-121915000D01*
X131528943Y-121793117D01*
X131792192Y-121530327D01*
X131934838Y-121186799D01*
X131934876Y-121142754D01*
X132015631Y-121062000D01*
X140639534Y-121062000D01*
X140669673Y-121092192D01*
X141013201Y-121234838D01*
X141385167Y-121235162D01*
X141728943Y-121093117D01*
X141992192Y-120830327D01*
X142134838Y-120486799D01*
X142135162Y-120114833D01*
X141993117Y-119771057D01*
X141730327Y-119507808D01*
X141386799Y-119365162D01*
X141014833Y-119364838D01*
X140671057Y-119506883D01*
X140639886Y-119538000D01*
X131700000Y-119538000D01*
X131454672Y-119586799D01*
X131408395Y-119596004D01*
X131161184Y-119761185D01*
X130857494Y-120064875D01*
X130814833Y-120064838D01*
X130471057Y-120206883D01*
X130207808Y-120469673D01*
X130065162Y-120813201D01*
X130064838Y-121185167D01*
X130206883Y-121528943D01*
X130469673Y-121792192D01*
X130765426Y-121915000D01*
X126935000Y-121915000D01*
X126935000Y-117504873D01*
X127239812Y-117504873D01*
X127404646Y-117903800D01*
X127709595Y-118209282D01*
X128108233Y-118374811D01*
X128539873Y-118375188D01*
X128938800Y-118210354D01*
X129244282Y-117905405D01*
X129409811Y-117506767D01*
X129410188Y-117075127D01*
X129245354Y-116676200D01*
X128940405Y-116370718D01*
X128541767Y-116205189D01*
X128110127Y-116204812D01*
X127711200Y-116369646D01*
X127405718Y-116674595D01*
X127240189Y-117073233D01*
X127239812Y-117504873D01*
X126935000Y-117504873D01*
X126935000Y-114504873D01*
X127239812Y-114504873D01*
X127404646Y-114903800D01*
X127709595Y-115209282D01*
X128108233Y-115374811D01*
X128539873Y-115375188D01*
X128938800Y-115210354D01*
X129244282Y-114905405D01*
X129409811Y-114506767D01*
X129410083Y-114195167D01*
X147404838Y-114195167D01*
X147546883Y-114538943D01*
X147603400Y-114595559D01*
X147603400Y-114840000D01*
X147659470Y-115121885D01*
X147819145Y-115360855D01*
X148374906Y-115916616D01*
X148374838Y-115995167D01*
X148516883Y-116338943D01*
X148779673Y-116602192D01*
X149123201Y-116744838D01*
X149495167Y-116745162D01*
X149838943Y-116603117D01*
X150102192Y-116340327D01*
X150244838Y-115996799D01*
X150245162Y-115624833D01*
X150103117Y-115281057D01*
X149840327Y-115017808D01*
X149496799Y-114875162D01*
X149416802Y-114875092D01*
X149107093Y-114565383D01*
X149132192Y-114540327D01*
X149274838Y-114196799D01*
X149275162Y-113824833D01*
X149133117Y-113481057D01*
X148870327Y-113217808D01*
X148526799Y-113075162D01*
X148154833Y-113074838D01*
X147811057Y-113216883D01*
X147547808Y-113479673D01*
X147405162Y-113823201D01*
X147404838Y-114195167D01*
X129410083Y-114195167D01*
X129410188Y-114075127D01*
X129245354Y-113676200D01*
X128940405Y-113370718D01*
X128541767Y-113205189D01*
X128110127Y-113204812D01*
X127711200Y-113369646D01*
X127405718Y-113674595D01*
X127240189Y-114073233D01*
X127239812Y-114504873D01*
X126935000Y-114504873D01*
X126935000Y-112813502D01*
X149493173Y-112813502D01*
X149635218Y-113157278D01*
X149898008Y-113420527D01*
X150241536Y-113563173D01*
X150613502Y-113563497D01*
X150957278Y-113421452D01*
X151013894Y-113364935D01*
X154571665Y-113364935D01*
X154853550Y-113308865D01*
X155092520Y-113149190D01*
X156006616Y-112235094D01*
X156085167Y-112235162D01*
X156428943Y-112093117D01*
X156692192Y-111830327D01*
X156834838Y-111486799D01*
X156835162Y-111114833D01*
X156693117Y-110771057D01*
X156430327Y-110507808D01*
X156086799Y-110365162D01*
X155714833Y-110364838D01*
X155371057Y-110506883D01*
X155107808Y-110769673D01*
X154965162Y-111113201D01*
X154965092Y-111193198D01*
X154266555Y-111891735D01*
X151014157Y-111891735D01*
X150958662Y-111836143D01*
X150615134Y-111693497D01*
X150243168Y-111693173D01*
X149899392Y-111835218D01*
X149636143Y-112098008D01*
X149493497Y-112441536D01*
X149493173Y-112813502D01*
X126935000Y-112813502D01*
X126935000Y-107895750D01*
X127120000Y-107895750D01*
X127120000Y-108661309D01*
X127216673Y-108894698D01*
X127395301Y-109073327D01*
X127628690Y-109170000D01*
X128394250Y-109170000D01*
X128553000Y-109011250D01*
X128553000Y-107737000D01*
X128807000Y-107737000D01*
X128807000Y-109011250D01*
X128965750Y-109170000D01*
X129731310Y-109170000D01*
X129964699Y-109073327D01*
X130143327Y-108894698D01*
X130240000Y-108661309D01*
X130240000Y-108046400D01*
X132848960Y-108046400D01*
X132848960Y-109773600D01*
X132893238Y-110008917D01*
X133032310Y-110225041D01*
X133244510Y-110370031D01*
X133496400Y-110421040D01*
X135223600Y-110421040D01*
X135458917Y-110376762D01*
X135675041Y-110237690D01*
X135820031Y-110025490D01*
X135871040Y-109773600D01*
X135871040Y-108046400D01*
X135826762Y-107811083D01*
X135687690Y-107594959D01*
X135475490Y-107449969D01*
X135431655Y-107441092D01*
X135744526Y-106972848D01*
X135858600Y-106399359D01*
X135858600Y-106340641D01*
X135744526Y-105767152D01*
X135419670Y-105280971D01*
X134933489Y-104956115D01*
X134360000Y-104842041D01*
X133786511Y-104956115D01*
X133300330Y-105280971D01*
X132975474Y-105767152D01*
X132861400Y-106340641D01*
X132861400Y-106399359D01*
X132975474Y-106972848D01*
X133286574Y-107438442D01*
X133261083Y-107443238D01*
X133044959Y-107582310D01*
X132899969Y-107794510D01*
X132848960Y-108046400D01*
X130240000Y-108046400D01*
X130240000Y-107895750D01*
X130081250Y-107737000D01*
X128807000Y-107737000D01*
X128553000Y-107737000D01*
X127278750Y-107737000D01*
X127120000Y-107895750D01*
X126935000Y-107895750D01*
X126935000Y-105418942D01*
X127119730Y-105418942D01*
X127356725Y-105992514D01*
X127476882Y-106112881D01*
X127395301Y-106146673D01*
X127216673Y-106325302D01*
X127120000Y-106558691D01*
X127120000Y-107324250D01*
X127278750Y-107483000D01*
X128553000Y-107483000D01*
X128553000Y-107463000D01*
X128807000Y-107463000D01*
X128807000Y-107483000D01*
X130081250Y-107483000D01*
X130240000Y-107324250D01*
X130240000Y-106558691D01*
X130143327Y-106325302D01*
X129964699Y-106146673D01*
X129883365Y-106112983D01*
X130001732Y-105994823D01*
X130239728Y-105421664D01*
X130240270Y-104801058D01*
X130003275Y-104227486D01*
X129564823Y-103788268D01*
X128991664Y-103550272D01*
X128371058Y-103549730D01*
X127797486Y-103786725D01*
X127358268Y-104225177D01*
X127120272Y-104798336D01*
X127119730Y-105418942D01*
X126935000Y-105418942D01*
X126935000Y-101231483D01*
X127198732Y-101495676D01*
X127847320Y-101764993D01*
X128549599Y-101765605D01*
X129198656Y-101497421D01*
X129695676Y-101001268D01*
X129964993Y-100352680D01*
X129965605Y-99650401D01*
X129697421Y-99001344D01*
X129201268Y-98504324D01*
X128552680Y-98235007D01*
X127850401Y-98234395D01*
X127201344Y-98502579D01*
X126935000Y-98768458D01*
X126935000Y-98219026D01*
X131392642Y-98219026D01*
X131395291Y-98234791D01*
X131649268Y-98762036D01*
X132085680Y-99151954D01*
X132638087Y-99345184D01*
X132873000Y-99200924D01*
X132873000Y-97987000D01*
X133127000Y-97987000D01*
X133127000Y-99200924D01*
X133361913Y-99345184D01*
X133914320Y-99151954D01*
X134350732Y-98762036D01*
X134604709Y-98234791D01*
X134607358Y-98219026D01*
X134486217Y-97987000D01*
X133127000Y-97987000D01*
X132873000Y-97987000D01*
X131513783Y-97987000D01*
X131392642Y-98219026D01*
X126935000Y-98219026D01*
X126935000Y-77540000D01*
X131316655Y-77540000D01*
X131430729Y-78113489D01*
X131755585Y-78599670D01*
X132070366Y-78810000D01*
X131755585Y-79020330D01*
X131430729Y-79506511D01*
X131316655Y-80080000D01*
X131430729Y-80653489D01*
X131755585Y-81139670D01*
X132070366Y-81350000D01*
X131755585Y-81560330D01*
X131430729Y-82046511D01*
X131316655Y-82620000D01*
X131430729Y-83193489D01*
X131755585Y-83679670D01*
X132070366Y-83890000D01*
X131755585Y-84100330D01*
X131430729Y-84586511D01*
X131316655Y-85160000D01*
X131430729Y-85733489D01*
X131755585Y-86219670D01*
X132070366Y-86430000D01*
X131755585Y-86640330D01*
X131430729Y-87126511D01*
X131316655Y-87700000D01*
X131430729Y-88273489D01*
X131755585Y-88759670D01*
X132070366Y-88970000D01*
X131755585Y-89180330D01*
X131430729Y-89666511D01*
X131316655Y-90240000D01*
X131430729Y-90813489D01*
X131755585Y-91299670D01*
X132070366Y-91510000D01*
X131755585Y-91720330D01*
X131430729Y-92206511D01*
X131316655Y-92780000D01*
X131430729Y-93353489D01*
X131755585Y-93839670D01*
X132070366Y-94050000D01*
X131755585Y-94260330D01*
X131430729Y-94746511D01*
X131316655Y-95320000D01*
X131430729Y-95893489D01*
X131755585Y-96379670D01*
X132065069Y-96586461D01*
X131649268Y-96957964D01*
X131395291Y-97485209D01*
X131392642Y-97500974D01*
X131513783Y-97733000D01*
X132873000Y-97733000D01*
X132873000Y-97713000D01*
X133127000Y-97713000D01*
X133127000Y-97733000D01*
X134486217Y-97733000D01*
X134607358Y-97500974D01*
X134604709Y-97485209D01*
X134350732Y-96957964D01*
X133934931Y-96586461D01*
X134244415Y-96379670D01*
X134285889Y-96317599D01*
X135703400Y-97735110D01*
X135703400Y-105110000D01*
X135759470Y-105391885D01*
X135919145Y-105630855D01*
X141709145Y-111420855D01*
X141948116Y-111580531D01*
X142230000Y-111636601D01*
X142230005Y-111636600D01*
X144914178Y-111636600D01*
X144969673Y-111692192D01*
X145313201Y-111834838D01*
X145685167Y-111835162D01*
X146028943Y-111693117D01*
X146292192Y-111430327D01*
X146434838Y-111086799D01*
X146435162Y-110714833D01*
X146293117Y-110371057D01*
X146030327Y-110107808D01*
X145686799Y-109965162D01*
X145314833Y-109964838D01*
X144971057Y-110106883D01*
X144914441Y-110163400D01*
X142535110Y-110163400D01*
X137201709Y-104829999D01*
X143933401Y-104829999D01*
X143933401Y-107740001D01*
X143989471Y-108021886D01*
X144034956Y-108089959D01*
X144034838Y-108225167D01*
X144176883Y-108568943D01*
X144439673Y-108832192D01*
X144783201Y-108974838D01*
X145155167Y-108975162D01*
X145498943Y-108833117D01*
X145762192Y-108570327D01*
X145904838Y-108226799D01*
X145905162Y-107854833D01*
X145763117Y-107511057D01*
X145500327Y-107247808D01*
X145406601Y-107208889D01*
X145406601Y-106835006D01*
X145585167Y-106835162D01*
X145928943Y-106693117D01*
X146192192Y-106430327D01*
X146334838Y-106086799D01*
X146335162Y-105714833D01*
X146198244Y-105383466D01*
X147075110Y-104506600D01*
X154020000Y-104506600D01*
X154301885Y-104450530D01*
X154540855Y-104290855D01*
X156580855Y-102250855D01*
X156612563Y-102203400D01*
X156740530Y-102011885D01*
X156796600Y-101730000D01*
X156796600Y-95305110D01*
X158205110Y-93896600D01*
X158859885Y-93896600D01*
X158867582Y-93915229D01*
X159112024Y-94160098D01*
X158868902Y-94402796D01*
X158665232Y-94893287D01*
X158664769Y-95424383D01*
X158867582Y-95915229D01*
X159242796Y-96291098D01*
X159733287Y-96494768D01*
X160264383Y-96495231D01*
X160755229Y-96292418D01*
X161131098Y-95917204D01*
X161334768Y-95426713D01*
X161335231Y-94895617D01*
X161132418Y-94404771D01*
X160887976Y-94159902D01*
X161131098Y-93917204D01*
X161334768Y-93426713D01*
X161335231Y-92895617D01*
X161132418Y-92404771D01*
X160887976Y-92159902D01*
X161131098Y-91917204D01*
X161334768Y-91426713D01*
X161335231Y-90895617D01*
X161132418Y-90404771D01*
X160887976Y-90159902D01*
X161131098Y-89917204D01*
X161334768Y-89426713D01*
X161335231Y-88895617D01*
X161132418Y-88404771D01*
X160887976Y-88159902D01*
X161131098Y-87917204D01*
X161334768Y-87426713D01*
X161335231Y-86895617D01*
X161132418Y-86404771D01*
X160887976Y-86159902D01*
X161131098Y-85917204D01*
X161334768Y-85426713D01*
X161335231Y-84895617D01*
X161132418Y-84404771D01*
X160887976Y-84159902D01*
X161131098Y-83917204D01*
X161334768Y-83426713D01*
X161335231Y-82895617D01*
X161132418Y-82404771D01*
X160887976Y-82159902D01*
X161131098Y-81917204D01*
X161334768Y-81426713D01*
X161335231Y-80895617D01*
X161132418Y-80404771D01*
X160887976Y-80159902D01*
X161131098Y-79917204D01*
X161334768Y-79426713D01*
X161335231Y-78895617D01*
X161132418Y-78404771D01*
X160887976Y-78159902D01*
X161131098Y-77917204D01*
X161287727Y-77540000D01*
X163316655Y-77540000D01*
X163430729Y-78113489D01*
X163755585Y-78599670D01*
X164070366Y-78810000D01*
X163755585Y-79020330D01*
X163430729Y-79506511D01*
X163316655Y-80080000D01*
X163430729Y-80653489D01*
X163755585Y-81139670D01*
X164070366Y-81350000D01*
X163755585Y-81560330D01*
X163430729Y-82046511D01*
X163316655Y-82620000D01*
X163430729Y-83193489D01*
X163755585Y-83679670D01*
X164070366Y-83890000D01*
X163755585Y-84100330D01*
X163430729Y-84586511D01*
X163316655Y-85160000D01*
X163430729Y-85733489D01*
X163755585Y-86219670D01*
X164070366Y-86430000D01*
X163755585Y-86640330D01*
X163430729Y-87126511D01*
X163316655Y-87700000D01*
X163430729Y-88273489D01*
X163755585Y-88759670D01*
X164070366Y-88970000D01*
X163755585Y-89180330D01*
X163430729Y-89666511D01*
X163316655Y-90240000D01*
X163430729Y-90813489D01*
X163755585Y-91299670D01*
X164070366Y-91510000D01*
X163755585Y-91720330D01*
X163430729Y-92206511D01*
X163316655Y-92780000D01*
X163430729Y-93353489D01*
X163755585Y-93839670D01*
X164070366Y-94050000D01*
X163755585Y-94260330D01*
X163430729Y-94746511D01*
X163316655Y-95320000D01*
X163430729Y-95893489D01*
X163755585Y-96379670D01*
X164070366Y-96590000D01*
X163755585Y-96800330D01*
X163430729Y-97286511D01*
X163316655Y-97860000D01*
X163430729Y-98433489D01*
X163755585Y-98919670D01*
X164241766Y-99244526D01*
X164815255Y-99358600D01*
X165184745Y-99358600D01*
X165758234Y-99244526D01*
X166244415Y-98919670D01*
X166569271Y-98433489D01*
X166683345Y-97860000D01*
X166569271Y-97286511D01*
X166244415Y-96800330D01*
X165929634Y-96590000D01*
X166244415Y-96379670D01*
X166569271Y-95893489D01*
X166683345Y-95320000D01*
X166569271Y-94746511D01*
X166244415Y-94260330D01*
X165929634Y-94050000D01*
X166244415Y-93839670D01*
X166569271Y-93353489D01*
X166683345Y-92780000D01*
X166569271Y-92206511D01*
X166244415Y-91720330D01*
X165929634Y-91510000D01*
X166244415Y-91299670D01*
X166569271Y-90813489D01*
X166683345Y-90240000D01*
X166569271Y-89666511D01*
X166244415Y-89180330D01*
X165929634Y-88970000D01*
X166244415Y-88759670D01*
X166569271Y-88273489D01*
X166683345Y-87700000D01*
X166569271Y-87126511D01*
X166244415Y-86640330D01*
X165929634Y-86430000D01*
X166244415Y-86219670D01*
X166569271Y-85733489D01*
X166683345Y-85160000D01*
X166569271Y-84586511D01*
X166244415Y-84100330D01*
X165929634Y-83890000D01*
X166244415Y-83679670D01*
X166569271Y-83193489D01*
X166683345Y-82620000D01*
X166569271Y-82046511D01*
X166244415Y-81560330D01*
X165929634Y-81350000D01*
X166244415Y-81139670D01*
X166569271Y-80653489D01*
X166683345Y-80080000D01*
X166569271Y-79506511D01*
X166244415Y-79020330D01*
X165929634Y-78810000D01*
X166244415Y-78599670D01*
X166569271Y-78113489D01*
X166683345Y-77540000D01*
X166569271Y-76966511D01*
X166244415Y-76480330D01*
X166230087Y-76470757D01*
X166251317Y-76466762D01*
X166467441Y-76327690D01*
X166612431Y-76115490D01*
X166663440Y-75863600D01*
X166663440Y-74136400D01*
X166619162Y-73901083D01*
X166480090Y-73684959D01*
X166267890Y-73539969D01*
X166016000Y-73488960D01*
X163984000Y-73488960D01*
X163748683Y-73533238D01*
X163532559Y-73672310D01*
X163387569Y-73884510D01*
X163336560Y-74136400D01*
X163336560Y-75863600D01*
X163380838Y-76098917D01*
X163519910Y-76315041D01*
X163732110Y-76460031D01*
X163773439Y-76468400D01*
X163755585Y-76480330D01*
X163430729Y-76966511D01*
X163316655Y-77540000D01*
X161287727Y-77540000D01*
X161334768Y-77426713D01*
X161335231Y-76895617D01*
X161132418Y-76404771D01*
X160757204Y-76028902D01*
X160266713Y-75825232D01*
X159735617Y-75824769D01*
X159244771Y-76027582D01*
X158868902Y-76402796D01*
X158665232Y-76893287D01*
X158664769Y-77424383D01*
X158867582Y-77915229D01*
X159112024Y-78160098D01*
X158868902Y-78402796D01*
X158665232Y-78893287D01*
X158664769Y-79424383D01*
X158867582Y-79915229D01*
X159112024Y-80160098D01*
X158868902Y-80402796D01*
X158665232Y-80893287D01*
X158664769Y-81424383D01*
X158867582Y-81915229D01*
X159112024Y-82160098D01*
X158868902Y-82402796D01*
X158665232Y-82893287D01*
X158664769Y-83424383D01*
X158867582Y-83915229D01*
X159112024Y-84160098D01*
X158868902Y-84402796D01*
X158860346Y-84423400D01*
X157130000Y-84423400D01*
X156848115Y-84479470D01*
X156609145Y-84639145D01*
X154399145Y-86849145D01*
X154239470Y-87088115D01*
X154183400Y-87370000D01*
X154183400Y-101424890D01*
X153404890Y-102203400D01*
X146560000Y-102203400D01*
X146278115Y-102259470D01*
X146039145Y-102419145D01*
X144149146Y-104309144D01*
X143989471Y-104548114D01*
X143933401Y-104829999D01*
X137201709Y-104829999D01*
X137176600Y-104804890D01*
X137176600Y-97430000D01*
X137120530Y-97148115D01*
X136960855Y-96909145D01*
X136146985Y-96095275D01*
X137244331Y-96095275D01*
X137306169Y-96331042D01*
X137807122Y-96507419D01*
X138337440Y-96478664D01*
X138693831Y-96331042D01*
X138705863Y-96285167D01*
X140654838Y-96285167D01*
X140796883Y-96628943D01*
X141059673Y-96892192D01*
X141403201Y-97034838D01*
X141775167Y-97035162D01*
X142118943Y-96893117D01*
X142382192Y-96630327D01*
X142524838Y-96286799D01*
X142524876Y-96242754D01*
X144605631Y-94162000D01*
X145496585Y-94162000D01*
X145606883Y-94428943D01*
X145869673Y-94692192D01*
X146213201Y-94834838D01*
X146585167Y-94835162D01*
X146928943Y-94693117D01*
X147192192Y-94430327D01*
X147334838Y-94086799D01*
X147335162Y-93714833D01*
X147193117Y-93371057D01*
X146930327Y-93107808D01*
X146586799Y-92965162D01*
X146542754Y-92965124D01*
X146438815Y-92861185D01*
X146317313Y-92780000D01*
X146191605Y-92696004D01*
X145900000Y-92638000D01*
X144290000Y-92638000D01*
X143998395Y-92696004D01*
X143899377Y-92762166D01*
X143751185Y-92861184D01*
X141447495Y-95164875D01*
X141404833Y-95164838D01*
X141061057Y-95306883D01*
X140797808Y-95569673D01*
X140655162Y-95913201D01*
X140654838Y-96285167D01*
X138705863Y-96285167D01*
X138755669Y-96095275D01*
X138000000Y-95339605D01*
X137244331Y-96095275D01*
X136146985Y-96095275D01*
X135018832Y-94967122D01*
X136652581Y-94967122D01*
X136681336Y-95497440D01*
X136828958Y-95853831D01*
X137064725Y-95915669D01*
X137820395Y-95160000D01*
X138179605Y-95160000D01*
X138935275Y-95915669D01*
X139171042Y-95853831D01*
X139347419Y-95352878D01*
X139318664Y-94822560D01*
X139171042Y-94466169D01*
X138935275Y-94404331D01*
X138179605Y-95160000D01*
X137820395Y-95160000D01*
X137064725Y-94404331D01*
X136828958Y-94466169D01*
X136652581Y-94967122D01*
X135018832Y-94967122D01*
X134850855Y-94799145D01*
X134611885Y-94639470D01*
X134480254Y-94613287D01*
X134244415Y-94260330D01*
X133929634Y-94050000D01*
X134244415Y-93839670D01*
X134569271Y-93353489D01*
X134683345Y-92780000D01*
X134569271Y-92206511D01*
X134244415Y-91720330D01*
X133929634Y-91510000D01*
X134244415Y-91299670D01*
X134569271Y-90813489D01*
X134683345Y-90240000D01*
X134569271Y-89666511D01*
X134244415Y-89180330D01*
X133929634Y-88970000D01*
X134244415Y-88759670D01*
X134569271Y-88273489D01*
X134683345Y-87700000D01*
X134569271Y-87126511D01*
X134244415Y-86640330D01*
X133929634Y-86430000D01*
X134244415Y-86219670D01*
X134569271Y-85733489D01*
X134683345Y-85160000D01*
X134569271Y-84586511D01*
X134244415Y-84100330D01*
X133929634Y-83890000D01*
X134244415Y-83679670D01*
X134569271Y-83193489D01*
X134683345Y-82620000D01*
X134569271Y-82046511D01*
X134244415Y-81560330D01*
X133929634Y-81350000D01*
X134244415Y-81139670D01*
X134569271Y-80653489D01*
X134683345Y-80080000D01*
X134569271Y-79506511D01*
X134244415Y-79020330D01*
X133929634Y-78810000D01*
X134244415Y-78599670D01*
X134569271Y-78113489D01*
X134683345Y-77540000D01*
X134660348Y-77424383D01*
X136664769Y-77424383D01*
X136867582Y-77915229D01*
X137112024Y-78160098D01*
X136868902Y-78402796D01*
X136665232Y-78893287D01*
X136664769Y-79424383D01*
X136867582Y-79915229D01*
X137112024Y-80160098D01*
X136868902Y-80402796D01*
X136665232Y-80893287D01*
X136664769Y-81424383D01*
X136867582Y-81915229D01*
X137112024Y-82160098D01*
X136868902Y-82402796D01*
X136665232Y-82893287D01*
X136664769Y-83424383D01*
X136867582Y-83915229D01*
X137112024Y-84160098D01*
X136868902Y-84402796D01*
X136665232Y-84893287D01*
X136664769Y-85424383D01*
X136867582Y-85915229D01*
X137112024Y-86160098D01*
X136868902Y-86402796D01*
X136665232Y-86893287D01*
X136664769Y-87424383D01*
X136867582Y-87915229D01*
X137112024Y-88160098D01*
X136868902Y-88402796D01*
X136665232Y-88893287D01*
X136664769Y-89424383D01*
X136867582Y-89915229D01*
X137112024Y-90160098D01*
X136868902Y-90402796D01*
X136665232Y-90893287D01*
X136664769Y-91424383D01*
X136867582Y-91915229D01*
X137112024Y-92160098D01*
X136868902Y-92402796D01*
X136665232Y-92893287D01*
X136664769Y-93424383D01*
X136867582Y-93915229D01*
X137242796Y-94291098D01*
X137358925Y-94339319D01*
X138000000Y-94980395D01*
X138640621Y-94339773D01*
X138755229Y-94292418D01*
X139131098Y-93917204D01*
X139334768Y-93426713D01*
X139335231Y-92895617D01*
X139132418Y-92404771D01*
X138887976Y-92159902D01*
X139131098Y-91917204D01*
X139334768Y-91426713D01*
X139335231Y-90895617D01*
X139132418Y-90404771D01*
X138887976Y-90159902D01*
X139131098Y-89917204D01*
X139334768Y-89426713D01*
X139335231Y-88895617D01*
X139132418Y-88404771D01*
X138887976Y-88159902D01*
X139131098Y-87917204D01*
X139334768Y-87426713D01*
X139335231Y-86895617D01*
X139132418Y-86404771D01*
X138887976Y-86159902D01*
X139131098Y-85917204D01*
X139139654Y-85896600D01*
X142554890Y-85896600D01*
X143454906Y-86796616D01*
X143454838Y-86875167D01*
X143596883Y-87218943D01*
X143859673Y-87482192D01*
X144203201Y-87624838D01*
X144575167Y-87625162D01*
X144918943Y-87483117D01*
X145182192Y-87220327D01*
X145324838Y-86876799D01*
X145325162Y-86504833D01*
X145183117Y-86161057D01*
X144920327Y-85897808D01*
X144576799Y-85755162D01*
X144496802Y-85755092D01*
X143380855Y-84639145D01*
X143141885Y-84479470D01*
X142860000Y-84423400D01*
X139140115Y-84423400D01*
X139132418Y-84404771D01*
X138887976Y-84159902D01*
X139131098Y-83917204D01*
X139334768Y-83426713D01*
X139335231Y-82895617D01*
X139132418Y-82404771D01*
X138887976Y-82159902D01*
X139131098Y-81917204D01*
X139334768Y-81426713D01*
X139335231Y-80895617D01*
X139132418Y-80404771D01*
X138887976Y-80159902D01*
X139131098Y-79917204D01*
X139334768Y-79426713D01*
X139335231Y-78895617D01*
X139132418Y-78404771D01*
X138887976Y-78159902D01*
X139131098Y-77917204D01*
X139334768Y-77426713D01*
X139335231Y-76895617D01*
X139132418Y-76404771D01*
X138757204Y-76028902D01*
X138266713Y-75825232D01*
X137735617Y-75824769D01*
X137244771Y-76027582D01*
X136868902Y-76402796D01*
X136665232Y-76893287D01*
X136664769Y-77424383D01*
X134660348Y-77424383D01*
X134569271Y-76966511D01*
X134244415Y-76480330D01*
X134230087Y-76470757D01*
X134251317Y-76466762D01*
X134467441Y-76327690D01*
X134612431Y-76115490D01*
X134663440Y-75863600D01*
X134663440Y-74136400D01*
X134619162Y-73901083D01*
X134480090Y-73684959D01*
X134267890Y-73539969D01*
X134016000Y-73488960D01*
X131984000Y-73488960D01*
X131748683Y-73533238D01*
X131532559Y-73672310D01*
X131387569Y-73884510D01*
X131336560Y-74136400D01*
X131336560Y-75863600D01*
X131380838Y-76098917D01*
X131519910Y-76315041D01*
X131732110Y-76460031D01*
X131773439Y-76468400D01*
X131755585Y-76480330D01*
X131430729Y-76966511D01*
X131316655Y-77540000D01*
X126935000Y-77540000D01*
X126935000Y-72831483D01*
X127198732Y-73095676D01*
X127847320Y-73364993D01*
X128549599Y-73365605D01*
X129198656Y-73097421D01*
X129695676Y-72601268D01*
X129964993Y-71952680D01*
X129965605Y-71250401D01*
X129806362Y-70865000D01*
X136860238Y-70865000D01*
X136860238Y-73835000D01*
X140939762Y-73835000D01*
X140939762Y-70865000D01*
X136860238Y-70865000D01*
X129806362Y-70865000D01*
X129697421Y-70601344D01*
X129381629Y-70285000D01*
X168518604Y-70285000D01*
X168204324Y-70598732D01*
M02*
