M48
;DRILL file {KiCad 4.0.4-stable} date 12/28/16 20:13:22
;FORMAT={-:-/ absolute / metric / decimal}
FMAT,2
METRIC,TZ
T1C0.300
T2C0.400
T3C0.500
T4C0.550
T5C0.800
T6C0.900
T7C1.016
%
G90
G05
M71
T1
X127.7Y-70.8
X127.7Y-75.8
X127.7Y-80.8
X127.7Y-85.8
X127.7Y-90.8
X127.7Y-95.8
X127.7Y-100.8
X128.5Y-121.5
X132.7Y-100.8
X134.8Y-70.8
X137.7Y-100.8
X137.7Y-116.5
X139.3Y-111.7
X139.9Y-114.6
X140.5Y-121.5
X142.6Y-111.7
X143.6Y-121.5
X144.8Y-70.8
X148.74Y-107.81
X148.74Y-108.81
X148.74Y-109.81
X149.74Y-107.81
X149.74Y-108.81
X149.74Y-109.81
X149.8Y-70.8
X149.8Y-75.8
X149.8Y-80.8
X149.8Y-85.8
X149.8Y-90.8
X150.2Y-114.39
X150.21Y-114.39
X150.74Y-107.81
X150.74Y-108.81
X150.74Y-109.81
X153.4Y-96.9
X153.4Y-101.
X154.45Y-117.75
X154.8Y-70.8
X157.1Y-121.5
X157.9Y-100.9
X158.6Y-110.6
X158.6Y-113.4
X158.6Y-116.3
X159.8Y-70.8
X160.1Y-121.5
X163.3Y-116.3
X163.3Y-121.5
X163.4Y-105.8
X164.8Y-70.8
X167.4Y-115.4
X169.8Y-70.8
X169.8Y-75.8
X169.8Y-80.8
X169.8Y-85.8
X169.8Y-90.8
X169.8Y-95.8
X169.8Y-100.8
X169.8Y-105.8
X170.9Y-115.4
T2
X131.Y-121.
X141.2Y-120.3
X141.59Y-96.1
X143.6Y-119.4
X144.39Y-86.69
X144.97Y-108.04
X145.4Y-105.9
X145.5Y-110.9
X146.4Y-93.9
X148.34Y-114.01
X149.31Y-115.81
X150.428Y-112.628
X155.9Y-111.3
T5
X138.Y-77.16
X138.Y-79.16
X138.Y-81.16
X138.Y-83.16
X138.Y-85.16
X138.Y-87.16
X138.Y-89.16
X138.Y-91.16
X138.Y-93.16
X138.Y-95.16
X160.Y-77.16
X160.Y-79.16
X160.Y-81.16
X160.Y-83.16
X160.Y-85.16
X160.Y-87.16
X160.Y-89.16
X160.Y-91.16
X160.Y-93.16
X160.Y-95.16
T6
X129.45Y-104.5
X129.45Y-107.
T7
X133.Y-75.
X133.Y-77.54
X133.Y-80.08
X133.Y-82.62
X133.Y-85.16
X133.Y-87.7
X133.Y-90.24
X133.Y-92.78
X133.Y-95.32
X133.Y-97.86
X133.78Y-106.62
X133.78Y-109.16
X165.Y-75.
X165.Y-77.54
X165.Y-80.08
X165.Y-82.62
X165.Y-85.16
X165.Y-87.7
X165.Y-90.24
X165.Y-92.78
X165.Y-95.32
X165.Y-97.86
X165.7Y-118.
X165.7Y-120.54
X169.3Y-118.
X169.3Y-120.54
T3
X145.499Y-121.445G85X145.499Y-120.795
G05
X152.499Y-121.445G85X152.499Y-120.795
G05
T4
X146.349Y-118.42G85X146.649Y-118.42
G05
X151.349Y-118.42G85X151.649Y-118.42
G05
T0
M30
